<svg width="321.702515" height="82.998779" viewBox="0 0 321.703 82.9988" fill="none" xmlns="http://www.w3.org/2000/svg" xmlns:xlink="http://www.w3.org/1999/xlink">
	<desc>
			Created with Pixso.
	</desc>
	<defs/>
	<path d="M50.75 5.19202C51.375 6.83785 51.6562 9.72327 51.5938 13.8483C51.5521 17.9524 51.1875 21.567 50.5 24.692C48.9167 31.7962 47.0833 37.6816 45 42.3483C42.9167 46.9941 40.1354 51.4003 36.6562 55.567C34.2396 58.4629 31.8021 60.7128 29.3438 62.317C26.8854 63.9003 23.8333 65.2128 20.1875 66.2545L15.9062 67.5045L14.25 72.5045C13.2292 75.7129 12.3438 77.942 11.5938 79.192C10.6979 80.6295 9.70833 81.4629 8.625 81.692C7.5625 81.942 6.67708 81.5358 5.96875 80.4733C5.61458 79.9316 5.375 79.1295 5.25 78.067C5.125 77.0254 5.04167 75.067 5 72.192L4.9375 65.2858L3.46875 64.067C2.71875 63.4212 1.94792 62.4003 1.15625 61.0045C0.385417 59.6087 0 58.5566 0 57.8483C0 57.2649 0.239583 56.9837 0.71875 57.0045C1.36458 57.0462 1.98958 57.5045 2.59375 58.3795L2.90625 58.8795C3.30208 59.6295 3.6875 60.2858 4.0625 60.8483C4.4375 61.4108 4.75 61.8274 5 62.0983C5.27083 62.3483 5.45833 62.4212 5.5625 62.317C5.70833 62.192 6.20833 60.5045 7.0625 57.2545C8.60417 51.317 11.2812 44.2441 15.0938 36.0358C17.3021 31.1816 18.4062 28.2024 18.4062 27.0983C18.4062 25.8691 18.1354 23.5878 17.5938 20.2545C17.0729 16.9003 16.6042 14.4628 16.1875 12.942C15.4167 10.2545 15.0625 8.75452 15.125 8.44202C15.2292 8.23368 15.4792 8.12952 15.875 8.12952C16.7917 8.12952 17.5 8.78577 18 10.0983C18.5208 11.4108 19.1354 14.1399 19.8438 18.2858C20.4896 21.9316 20.875 23.817 21 23.942C21.0417 23.9837 21.1354 23.9003 21.2812 23.692C21.4271 23.4837 21.6146 23.192 21.8438 22.817C22.0729 22.442 22.3021 22.0253 22.5312 21.567C24.0104 18.8795 25.9167 15.9212 28.25 12.692C30.6042 9.44202 32.6562 6.94202 34.4062 5.19202C35.8646 3.71285 37.0104 2.67118 37.8438 2.06702C38.6771 1.44202 39.6146 0.962852 40.6562 0.629517C45.5938 -0.995483 48.9583 0.525352 50.75 5.19202ZM10.3438 76.067C10.8854 74.7962 11.4688 73.1816 12.0938 71.2233C12.7396 69.2649 13.0625 68.0774 13.0625 67.6608C13.0625 67.4316 12.1771 67.2649 10.4062 67.1608C8.65625 67.0358 7.6875 67.192 7.5 67.6295C7.33333 68.0462 7.26042 69.6712 7.28125 72.5045C7.30208 75.3379 7.40625 77.0879 7.59375 77.7545C8.09375 79.5462 9.01042 78.9837 10.3438 76.067ZM15.2188 59.3483C16.4479 54.0149 17.3958 48.8379 18.0625 43.817C18.75 38.7962 18.875 36.0462 18.4375 35.567C18.3125 35.442 17.9375 35.9941 17.3125 37.2233C16.6875 38.4316 15.9375 40.0462 15.0625 42.067C14.1875 44.0879 13.3125 46.2024 12.4375 48.4108C11.5833 50.5983 10.625 53.7128 9.5625 57.7545C8.66667 61.2337 8.3125 63.2753 8.5 63.8795C8.6875 64.4837 9.76042 64.7962 11.7188 64.817L13.9688 64.817L15.2188 59.3483ZM48 24.0983C49.7083 15.5983 49.8021 9.46285 48.2812 5.69202C47.0729 2.77535 45.0417 1.78577 42.1875 2.72327C40.875 3.13993 39.4375 3.97327 37.875 5.22327C34.0625 8.20243 29.4062 14.5774 23.9062 24.3483L21.4375 28.7233L21.1562 35.9733C20.8646 43.5774 19.7188 51.4837 17.7188 59.692C17.1771 61.9629 16.9375 63.2962 17 63.692C17.0625 64.192 17.4583 64.3795 18.1875 64.2545C18.5625 64.192 19.6458 63.8899 21.4375 63.3483C24.5417 62.3691 27.5938 60.5774 30.5938 57.9733C33.6146 55.3691 36.4375 52.0566 39.0625 48.0358C41.1458 44.8483 42.8958 41.3587 44.3125 37.567C45.7292 33.7753 46.9583 29.2858 48 24.0983ZM78.435 53.9108L78.6225 53.9733C78.7683 53.9941 78.8725 54.067 78.935 54.192C79.0183 54.2962 79.0392 54.4629 78.9975 54.692C78.935 54.9629 78.5808 55.4108 77.935 56.0358C77.31 56.6608 76.2683 57.4837 74.81 58.5045C73.3517 59.5045 71.7162 60.4733 69.9037 61.4108C68.0287 62.3899 66.4662 62.9941 65.2162 63.2233C63.9871 63.4316 62.8517 63.2962 61.81 62.817C60.0808 62.0253 59.2163 60.6399 59.2163 58.6608L59.2163 57.1608L55.7475 59.6295C54.2267 60.692 53.1433 61.3691 52.4975 61.6608C51.8725 61.9316 51.1538 62.0358 50.3413 61.9733C49.7579 61.9316 49.2892 61.7649 48.935 61.4733C48.5808 61.1816 48.3621 60.817 48.2788 60.3795C48.1954 59.942 48.1746 59.4941 48.2163 59.0358C48.2788 58.5774 48.3829 58.1087 48.5288 57.6295C48.9454 56.2962 49.7683 55.0149 50.9975 53.7858C52.2475 52.5358 53.5496 51.7129 54.9038 51.317C55.7579 51.067 56.4454 50.9524 56.9663 50.9733C57.4871 50.9941 58.2058 51.1712 59.1225 51.5045L61.2788 52.2858L63.685 50.4108C65.7058 48.8274 66.9246 48.4212 67.3412 49.192C67.4246 49.3587 67.4662 49.567 67.4662 49.817C67.4662 50.2545 66.6954 51.2441 65.1537 52.7858C63.8204 54.0566 62.8517 55.4004 62.2475 56.817C61.6433 58.2128 61.6017 59.2233 62.1225 59.8483C62.8725 60.7858 64.2267 60.9316 66.185 60.2858C68.1642 59.6399 71.0704 58.0879 74.9037 55.6295C75.5496 55.2129 76.1433 54.8587 76.685 54.567C77.2475 54.2754 77.6642 54.0879 77.935 54.0045C78.2267 53.9004 78.3933 53.8691 78.435 53.9108ZM58.4975 54.317C58.7267 53.942 58.4871 53.692 57.7788 53.567C56.7996 53.3795 55.8725 53.5149 54.9975 53.9733C53.7892 54.6191 52.6329 55.6816 51.5288 57.1608C50.5496 58.4733 50.2475 59.2753 50.6225 59.567C50.685 59.6087 50.7788 59.6295 50.9038 59.6295C51.2371 59.6295 52.5183 58.817 54.7475 57.192C55.6433 56.5879 56.4663 55.9941 57.2163 55.4108C57.9871 54.8274 58.4142 54.4629 58.4975 54.317ZM94.87 33.4733C102.287 32.4524 108.36 32.1399 113.089 32.5358C117.839 32.9108 120.214 33.9212 120.214 35.567C120.214 35.9628 120.11 36.2337 119.901 36.3795C119.714 36.5045 119.391 36.5253 118.933 36.442C118.474 36.3378 117.839 36.1087 117.026 35.7545C116.297 35.4212 115.37 35.2024 114.245 35.0983C113.12 34.9941 111.318 34.9524 108.839 34.9733C105.547 34.9941 101.683 35.2545 97.245 35.7545C92.8283 36.2337 90.3804 36.6712 89.9013 37.067C89.5054 37.4003 88.0158 40.442 85.4325 46.192C82.8492 51.942 81.0679 56.1608 80.0888 58.8483C78.4429 63.4108 77.1825 67.6608 76.3075 71.5983C75.4533 75.5149 75.0992 78.567 75.245 80.7545C75.3283 81.6504 75.3179 82.2233 75.2138 82.4733C75.1096 82.7233 74.8179 82.8899 74.3388 82.9733C73.9221 83.0358 73.6096 82.9837 73.4013 82.817C73.2138 82.6712 73.0575 82.3483 72.9325 81.8483C72.2658 79.1816 72.9013 74.3379 74.8388 67.317C76.7971 60.2753 79.5575 52.8691 83.12 45.0983C84.2658 42.6191 84.8388 41.0045 84.8388 40.2545C84.8388 39.6503 85.12 39.0045 85.6825 38.317C86.0783 37.8587 86.2242 37.6087 86.12 37.567C86.0158 37.5045 85.3492 37.5566 84.12 37.7233C82.5783 37.9524 79.1096 38.6191 73.7138 39.7233C68.3388 40.8066 64.5054 41.6295 62.2138 42.192C59.3388 42.8587 57.8388 42.7962 57.7138 42.0045C57.6929 41.7962 57.7346 41.5566 57.8388 41.2858C57.9846 40.8899 60.2033 40.1816 64.495 39.1608C68.7658 38.1191 73.87 37.0462 79.8075 35.942L88.0888 34.442L93.62 23.7545C95.8283 19.4837 97.3596 16.6399 98.2138 15.2233C99.0888 13.7858 99.7242 13.067 100.12 13.067C101.474 13.067 101.63 15.0983 100.589 19.1608C100.047 21.2024 99.3908 23.0149 98.62 24.5983C97.8492 26.1608 96.6929 28.0045 95.1513 30.1295L92.5575 33.7545L94.87 33.4733ZM109.618 52.692C110.638 52.567 111.253 52.5462 111.461 52.6295C111.67 52.692 111.774 52.9733 111.774 53.4733C111.774 54.1608 111.315 54.6816 110.399 55.0358C109.482 55.3691 108.326 55.442 106.93 55.2545C105.868 55.1087 104.94 54.7337 104.149 54.1295C103.357 53.5045 102.565 52.5566 101.774 51.2858C101.503 50.8483 101.274 50.6608 101.086 50.7233C100.899 50.7649 100.43 51.1504 99.68 51.8795C99.2425 52.2962 98.6175 53.1504 97.805 54.442C97.0133 55.7129 96.2633 57.0462 95.555 58.442C93.8258 61.9629 92.5758 63.7128 91.805 63.692C91.5342 63.6712 91.3154 63.4524 91.1488 63.0358C91.0029 62.5774 91.4196 60.2858 92.3988 56.1608C93.4196 52.1191 93.8258 49.6295 93.6175 48.692C93.4508 47.942 93.5758 47.3274 93.9925 46.8483C94.43 46.3483 94.9508 46.2024 95.555 46.4108C96.0342 46.5774 96.2738 47.5149 96.2738 49.2233L96.2738 51.7545L98.43 49.6608C99.7842 48.3483 100.847 47.7233 101.618 47.7858C102.388 47.8274 103.17 48.5774 103.961 50.0358C104.649 51.2649 105.388 52.067 106.18 52.442C106.993 52.817 108.138 52.9004 109.618 52.692ZM136.49 52.5358C137.052 52.4733 137.448 52.6816 137.677 53.1608C137.907 53.6399 137.761 54.192 137.24 54.817C136.823 55.2754 136.365 55.7649 135.865 56.2858C135.365 56.7858 134.521 57.5566 133.334 58.5983C132.146 59.6399 130.959 60.5774 129.771 61.4108C128.584 62.2233 127.177 63.0149 125.552 63.7858C123.927 64.5566 122.355 65.0878 120.834 65.3795C118.625 65.7962 116.667 65.4628 114.959 64.3795C113.25 63.2753 112.292 61.7337 112.084 59.7545C111.875 57.6712 112 55.4941 112.459 53.2233C112.855 51.3066 113.344 49.9212 113.927 49.067C114.511 48.2129 115.125 47.9941 115.771 48.4108C116.063 48.5774 116.209 48.9733 116.209 49.5983C116.209 50.2024 116.073 50.5879 115.802 50.7545C115.511 50.942 115.177 52.2962 114.802 54.817C114.552 56.4212 114.427 57.5566 114.427 58.2233C114.448 58.8691 114.615 59.567 114.927 60.317C115.511 61.7337 116.646 62.5253 118.334 62.692C120.042 62.8378 121.823 62.5358 123.677 61.7858C125.552 61.0358 127.271 60.0566 128.834 58.8483C129.813 58.0774 130.907 57.1504 132.115 56.067C133.344 54.9629 134.302 54.1087 134.99 53.5045C135.698 52.9004 136.198 52.5774 136.49 52.5358ZM117.459 44.5983C117.23 44.8274 116.938 44.942 116.584 44.942C116.23 44.942 115.927 44.8274 115.677 44.5983C115.448 44.3483 115.334 44.0462 115.334 43.692C115.334 43.3379 115.448 43.0462 115.677 42.817C115.927 42.567 116.23 42.442 116.584 42.442C116.938 42.442 117.23 42.567 117.459 42.817C117.709 43.0462 117.834 43.3379 117.834 43.692C117.834 44.0462 117.709 44.3483 117.459 44.5983ZM155.206 52.5983C155.623 52.9733 155.238 53.692 154.05 54.7545C153.363 55.3587 151.779 56.5358 149.3 58.2858C146.821 60.0149 145.071 61.1191 144.05 61.5983C141.258 62.8483 139.081 62.7858 137.519 61.4108C136.435 60.4733 136.008 59.192 136.238 57.567C136.571 55.2545 137.373 53.0983 138.644 51.0983C140.019 48.7649 141.373 47.1504 142.706 46.2545C144.04 45.3587 145.133 45.3379 145.988 46.192C146.613 46.817 146.748 48.067 146.394 49.942C146.06 51.7962 145.477 52.942 144.644 53.3795C144.165 53.6295 143.769 53.6712 143.456 53.5045C143.144 53.3379 142.988 53.0358 142.988 52.5983C142.988 52.1399 143.133 51.5983 143.425 50.9733C144.238 49.4316 144.456 48.6087 144.081 48.5045C143.727 48.3795 143.06 49.0045 142.081 50.3795L141.613 51.067C140.008 53.567 139.05 55.5879 138.738 57.1295C138.425 58.6503 138.8 59.5774 139.863 59.9108C140.571 60.1608 141.56 59.9837 142.831 59.3795C144.102 58.7753 146.238 57.4733 149.238 55.4733C151.508 53.9524 152.998 53.0254 153.706 52.692C154.415 52.3379 154.915 52.3066 155.206 52.5983ZM179.266 53.2545C179.412 53.5045 179.412 53.7441 179.266 53.9733C179.141 54.2024 178.756 54.5149 178.11 54.9108C177.464 55.2858 176.579 55.7233 175.454 56.2233C174.329 56.7233 172.766 57.3899 170.766 58.2233C166.433 60.0566 163.339 61.2337 161.485 61.7545C159.652 62.2753 157.902 62.4524 156.235 62.2858L153.829 62.0983L152.423 65.5358C151.36 68.1191 150.568 70.4108 150.048 72.4108C149.527 74.4108 149.193 76.4733 149.048 78.5983C148.839 81.2233 148.475 82.567 147.954 82.6295C147.745 82.6712 147.475 82.5254 147.141 82.192C146.37 81.442 146.277 79.2962 146.86 75.7545C147.423 72.2128 148.454 68.6295 149.954 65.0045C150.975 62.442 151.787 60.3274 152.391 58.6608C153.079 56.7858 154.006 54.8483 155.173 52.8483C156.714 50.1191 158.402 46.9941 160.235 43.4733C162.402 39.4108 164.985 34.7337 167.985 29.442C171.131 23.9212 173.235 20.192 174.298 18.2545C175.985 15.1712 177.391 13.9837 178.516 14.692C179.266 15.1503 179.131 15.942 178.11 17.067C177.714 17.5045 176.558 19.3795 174.641 22.692C167.537 35.2545 163.985 41.6608 163.985 41.9108C163.985 42.0774 164.964 41.2545 166.923 39.442C169.839 36.7545 171.912 35.817 173.141 36.6295C173.766 37.0253 174.006 37.4316 173.86 37.8483C173.735 38.2649 173.266 38.5149 172.454 38.5983C171.6 38.6816 170.11 39.7337 167.985 41.7545C165.881 43.7754 163.735 46.1504 161.548 48.8795C159.36 51.5879 157.745 53.9316 156.704 55.9108C156.287 56.6816 155.975 57.2962 155.766 57.7545C155.579 58.192 155.443 58.5774 155.36 58.9108C155.277 59.2441 155.308 59.4837 155.454 59.6295C155.6 59.7545 155.798 59.8483 156.048 59.9108C156.318 59.9733 156.704 60.0045 157.204 60.0045C158.391 60.0045 160.027 59.6608 162.11 58.9733C164.214 58.2649 167.235 57.0462 171.173 55.317C174.235 54.0045 176.277 53.2233 177.298 52.9733C178.318 52.7024 178.975 52.7962 179.266 53.2545ZM251.042 48.7545C253.022 48.7545 251.657 50.7858 246.949 54.8483C239.99 60.9316 234.865 65.3587 231.574 68.1295C228.282 70.8795 225.709 72.9212 223.855 74.2545C222.001 75.5879 220.011 76.8379 217.886 78.0045C214.74 79.7337 211.688 80.817 208.73 81.2545C205.772 81.7129 203.24 81.5358 201.136 80.7233C199.032 79.9316 197.542 78.6295 196.667 76.817C195.792 75.0045 195.324 72.7962 195.261 70.192C195.199 67.5878 195.449 64.9316 196.011 62.2233C196.595 59.4941 197.449 56.5149 198.574 53.2858C199.72 50.0566 200.917 47.0358 202.167 44.2233C203.417 41.4108 204.813 38.4837 206.355 35.442C215.709 17.1087 224.761 7.50452 233.511 6.62952C237.511 6.23368 240.251 7.42118 241.73 10.192C243.334 13.2128 243.188 18.317 241.292 25.5045C240.792 27.3795 239.615 30.2441 237.761 34.0983C235.907 37.9524 234.084 41.4004 232.292 44.442C230.522 47.4837 229.459 49.0045 229.105 49.0045C228.73 49.0045 228.365 48.7337 228.011 48.192C227.824 47.8795 227.928 47.2545 228.324 46.317C228.74 45.3587 229.615 43.7233 230.949 41.4108C238.678 28.0566 241.636 18.6608 239.824 13.2233C239.386 11.8899 238.626 10.9212 237.542 10.317C236.48 9.69202 235.199 9.45243 233.699 9.59827C232.22 9.72327 230.49 10.3378 228.511 11.442C226.553 12.5253 224.542 14.0462 222.48 16.0045C220.251 18.1087 218.074 20.7128 215.949 23.817C213.845 26.9212 211.542 30.9108 209.042 35.7858C202.397 48.6191 198.667 59.4628 197.855 68.317C197.73 69.8378 197.865 71.3274 198.261 72.7858C198.678 74.2233 199.459 75.5149 200.605 76.6608C201.772 77.8274 203.22 78.5045 204.949 78.692C206.574 78.8795 208.292 78.7337 210.105 78.2545C211.938 77.7754 214.188 76.8795 216.855 75.567C219.126 74.4212 221.792 72.6608 224.855 70.2858C227.917 67.9108 232.73 63.8899 239.292 58.2233C242.272 55.6191 244.907 53.3899 247.199 51.5358C249.511 49.6816 250.792 48.7545 251.042 48.7545ZM276.102 52.8483C276.602 52.5358 277.061 52.4941 277.477 52.7233C278.019 52.9941 277.957 53.5149 277.29 54.2858C277.144 54.4316 276.977 54.5879 276.79 54.7545C272.811 58.2962 269.936 60.2128 268.165 60.5045C266.998 60.7128 265.977 60.6816 265.102 60.4108C264.227 60.1399 263.446 59.4316 262.759 58.2858C262.467 57.8066 262.009 56.8066 261.384 55.2858C260.759 53.7649 260.446 52.9941 260.446 52.9733C260.3 52.8274 259.915 53.067 259.29 53.692C258.686 54.317 257.936 55.2129 257.04 56.3795C256.144 57.5253 255.248 58.7753 254.352 60.1295C253.832 60.942 253.311 61.6399 252.79 62.2233C252.269 62.7858 251.915 63.067 251.727 63.067C251.248 63.067 250.873 62.442 250.602 61.192C250.248 59.4212 250.54 57.0149 251.477 53.9733C252.415 50.9108 254.165 46.6816 256.727 41.2858C258.269 38.0566 260.457 33.2545 263.29 26.8795C265.144 22.7128 266.405 20.0253 267.071 18.817C267.738 17.5878 268.311 16.9733 268.79 16.9733C269.498 16.9733 270.04 17.5149 270.415 18.5983C270.811 19.6608 270.905 20.9524 270.696 22.4733C270.488 23.7649 270.175 25.0045 269.759 26.192C269.342 27.3795 268.582 28.9316 267.477 30.8483C266.394 32.7441 265.425 34.3587 264.571 35.692C263.717 37.0253 262.207 39.3587 260.04 42.692C257.394 46.692 255.55 50.0774 254.509 52.8483L253.102 56.7858L256.321 53.2545C257.321 52.1712 258.165 51.3379 258.852 50.7545C259.561 50.1712 260.175 49.817 260.696 49.692C261.238 49.567 261.665 49.6816 261.977 50.0358C262.311 50.3899 262.582 50.9837 262.79 51.817C263.123 53.1712 263.509 54.3379 263.946 55.317C264.405 56.2754 264.852 56.9733 265.29 57.4108C265.748 57.8483 266.155 58.1608 266.509 58.3483C266.884 58.5149 267.217 58.5774 267.509 58.5358C268.092 58.4316 268.998 57.9733 270.227 57.1608C271.457 56.3274 272.696 55.4316 273.946 54.4733C275.217 53.4941 275.936 52.9524 276.102 52.8483ZM294.694 51.692C295.11 51.5879 295.392 51.692 295.538 52.0045C295.704 52.317 295.725 52.6816 295.6 53.0983C295.496 53.5149 295.308 53.8066 295.038 53.9733C294.829 54.0983 294.506 54.2129 294.069 54.317C293.631 54.4212 292.86 54.6608 291.756 55.0358C290.673 55.4108 289.36 55.9316 287.819 56.5983C285.548 57.5774 284.017 58.317 283.225 58.817C282.454 59.2962 281.767 59.9628 281.163 60.817C280.183 62.192 279.183 63.0983 278.163 63.5358C277.163 63.9524 276.204 63.8795 275.288 63.317C274.704 62.942 274.288 62.4837 274.038 61.942C273.788 61.4003 273.704 60.8691 273.788 60.3483C273.871 59.8066 273.954 59.3899 274.038 59.0983C274.142 58.8066 274.246 58.567 274.35 58.3795C274.558 58.0253 274.84 57.6816 275.194 57.3483C275.548 56.9941 275.871 56.7545 276.163 56.6295C276.892 56.3379 277.256 55.8274 277.256 55.0983C277.277 54.3066 277.788 53.0774 278.788 51.4108C279.808 49.7441 280.725 48.6191 281.538 48.0358C282.663 47.2233 283.579 46.7858 284.288 46.7233C285.017 46.6608 285.642 46.9316 286.163 47.5358C286.475 47.8899 286.683 48.1712 286.788 48.3795C286.913 48.567 287.006 48.9316 287.069 49.4733C287.131 50.0149 287.048 50.6608 286.819 51.4108C286.715 51.8899 286.558 52.3899 286.35 52.9108C286.163 53.4316 286.006 53.8379 285.881 54.1295C285.756 54.4212 285.694 54.5774 285.694 54.5983C285.715 54.6191 286.381 54.4108 287.694 53.9733C289.006 53.5358 290.413 53.067 291.913 52.567C293.433 52.067 294.36 51.7754 294.694 51.692ZM278.194 60.3483C278.61 59.9108 278.86 59.6191 278.944 59.4733C279.027 59.3274 279.038 59.2024 278.975 59.0983C278.913 58.9941 278.694 58.8483 278.319 58.6608C277.923 58.4316 277.621 58.3483 277.413 58.4108C277.225 58.4524 277.027 58.6712 276.819 59.067C276.631 59.442 276.485 59.817 276.381 60.192C276.298 60.567 276.277 60.8795 276.319 61.1295C276.381 61.3795 276.506 61.5045 276.694 61.5045C277.006 61.5045 277.506 61.1191 278.194 60.3483ZM282.569 54.1295C283.548 52.442 284.038 51.2337 284.038 50.5045C284.038 50.0254 283.985 49.7545 283.881 49.692C283.777 49.6295 283.517 49.7233 283.1 49.9733C282.558 50.3274 281.85 51.2545 280.975 52.7545C280.1 54.2545 279.663 55.3066 279.663 55.9108C279.663 56.6399 279.933 56.8691 280.475 56.5983C281.121 56.2858 281.819 55.4629 282.569 54.1295ZM320.41 52.5358C320.973 52.4733 321.368 52.6816 321.598 53.1608C321.827 53.6399 321.681 54.192 321.16 54.817C320.743 55.2754 320.285 55.7649 319.785 56.2858C319.285 56.7858 318.441 57.5566 317.254 58.5983C316.066 59.6399 314.879 60.5774 313.691 61.4108C312.504 62.2233 311.098 63.0149 309.473 63.7858C307.848 64.5566 306.275 65.0878 304.754 65.3795C302.545 65.7962 300.587 65.4628 298.879 64.3795C297.17 63.2753 296.212 61.7337 296.004 59.7545C295.795 57.6712 295.92 55.4941 296.379 53.2233C296.775 51.3066 297.264 49.9212 297.848 49.067C298.431 48.2129 299.045 47.9941 299.691 48.4108C299.983 48.5774 300.129 48.9733 300.129 49.5983C300.129 50.2024 299.993 50.5879 299.723 50.7545C299.431 50.942 299.098 52.2962 298.723 54.817C298.473 56.4212 298.348 57.5566 298.348 58.2233C298.368 58.8691 298.535 59.567 298.848 60.317C299.431 61.7337 300.566 62.5253 302.254 62.692C303.962 62.8378 305.743 62.5358 307.598 61.7858C309.473 61.0358 311.191 60.0566 312.754 58.8483C313.733 58.0774 314.827 57.1504 316.035 56.067C317.264 54.9629 318.223 54.1087 318.91 53.5045C319.618 52.9004 320.118 52.5774 320.41 52.5358ZM301.379 44.5983C301.15 44.8274 300.858 44.942 300.504 44.942C300.15 44.942 299.848 44.8274 299.598 44.5983C299.368 44.3483 299.254 44.0462 299.254 43.692C299.254 43.3379 299.368 43.0462 299.598 42.817C299.848 42.567 300.15 42.442 300.504 42.442C300.858 42.442 301.15 42.567 301.379 42.817C301.629 43.0462 301.754 43.3379 301.754 43.692C301.754 44.0462 301.629 44.3483 301.379 44.5983Z" fill="#AAAAAA" fill-opacity="1.000000" fill-rule="evenodd"/>
</svg>
