<svg width="78.999878" height="79.000031" viewBox="0 0 78.9999 79" fill="none" xmlns="http://www.w3.org/2000/svg" xmlns:xlink="http://www.w3.org/1999/xlink">
	<desc>
			Created with Pixso.
	</desc>
	<defs/>
	<path id="Vector" d="M73.712 54.3325C73.5518 54.01 73.2313 53.6876 72.9108 53.5263C72.4301 53.0427 71.9494 52.8814 71.9494 52.8814C71.9494 52.8814 71.4686 52.7202 70.8276 52.7202C70.5071 52.7202 70.1867 52.7202 69.7059 52.7202C69.3854 52.7202 68.9047 52.8815 68.5842 53.0427C68.2638 53.2039 67.9433 53.3651 67.783 53.5263C67.3023 53.8488 66.9818 54.1712 66.6613 54.4937C66.5011 54.6549 66.5011 54.8162 66.3409 54.8162C66.3409 54.9774 66.1806 54.9773 66.1806 54.9773C66.1806 54.9773 66.6613 55.1386 67.3023 55.2998C67.6228 55.2998 67.9433 55.461 68.424 55.461C68.7445 55.461 69.2252 55.461 69.7059 55.2998C70.0264 55.1386 70.3469 54.9774 70.6674 54.8162C71.1481 54.4937 71.4686 54.01 71.7891 53.6876C72.1096 53.3651 72.1096 53.0427 72.1096 53.0427C72.1096 53.0427 71.9494 53.3651 71.9494 53.8488C71.7891 54.3325 71.7891 54.8161 71.7891 55.461C71.7891 55.7835 71.7891 56.1059 71.9494 56.5896C72.1096 57.0732 72.2698 57.3957 72.4301 57.7181C72.5903 58.0406 72.9108 58.3631 73.071 58.6855C73.5518 59.1692 73.8723 59.4916 73.8723 59.4916C73.8723 59.4916 73.8723 59.4916 74.0325 59.3304C74.0325 59.1692 74.1928 59.008 74.353 58.8467C74.5132 58.3631 74.6735 57.7182 74.6735 57.0733C74.6735 56.7508 74.6735 56.2671 74.5132 55.9447C74.1927 54.9774 74.0325 54.6549 73.712 54.3325Z" fill="#F5EFDB" fill-opacity="1.000000" fill-rule="nonzero"/>
	<path id="Vector" d="M76.2758 49.9796C76.1155 49.4959 75.795 49.1735 75.4745 48.851C75.1541 48.5286 74.8336 48.3673 74.6733 48.2061C74.0323 47.8837 73.7118 47.7224 73.7118 47.7224C73.7118 47.7224 73.2311 47.7224 72.5901 47.7224C72.2697 47.7224 71.9492 47.7224 71.4684 47.8836C71.1479 48.0449 70.6672 48.0449 70.3467 48.3673C70.0262 48.5286 69.7057 48.851 69.3853 49.0122C69.0648 49.3347 68.9045 49.4959 68.7443 49.8184C68.584 50.1408 68.4238 50.302 68.4238 50.4633C68.2635 50.6245 68.2635 50.7857 68.2635 50.7857C68.2635 50.7857 68.7443 50.9469 69.3853 50.9469C70.0262 50.9469 70.8275 50.9469 71.6287 50.6245C71.9492 50.4633 72.2697 50.1408 72.5901 49.8184C72.9106 49.4959 73.0709 49.1735 73.2311 49.0122C73.5516 48.5286 73.7118 48.0449 73.7118 47.8836C73.7118 47.8836 73.5516 48.3673 73.5516 49.0122C73.5516 49.3347 73.5516 49.6571 73.5516 50.1408C73.5516 50.4632 73.7119 50.9469 73.8721 51.2694C74.1926 52.0755 74.8335 52.7204 75.3143 53.2041C75.795 53.6877 76.2758 53.849 76.2758 53.849C76.2758 53.849 76.2757 53.6877 76.436 53.5265C76.436 53.3653 76.5962 53.0428 76.5962 52.7204C76.5962 52.3979 76.5962 51.9143 76.5962 51.4306C76.5962 50.9469 76.436 50.4633 76.2758 49.9796Z" fill="#F5EFDB" fill-opacity="1.000000" fill-rule="nonzero"/>
	<path id="Vector" d="M77.8785 45.6272C77.7183 45.1435 77.558 44.8211 77.3978 44.3374C77.0773 44.015 76.9171 43.6925 76.5966 43.3701C76.2761 43.0476 75.9556 42.8864 75.6351 42.8864C74.9941 42.5639 74.5134 42.564 74.5134 42.564C74.5134 42.564 74.0327 42.564 73.3917 42.7252C73.0712 42.7252 72.7507 42.8864 72.27 43.0476C71.9495 43.2088 71.4688 43.3701 71.1483 43.6925C70.8278 44.015 70.5074 44.1762 70.3471 44.4986C70.1869 44.8211 70.0266 45.1435 69.8664 45.3047C69.7061 45.7884 69.5459 46.2721 69.5459 46.2721C69.5459 46.2721 70.0266 46.2721 70.6676 46.2721C71.3086 46.2721 72.1098 46.1109 72.911 45.466C73.2315 45.1435 73.5519 44.9823 73.7122 44.6599C73.8724 44.3374 74.0327 44.015 74.1929 43.6925C74.3532 43.0476 74.5134 42.564 74.5134 42.564C74.5134 42.564 74.5134 43.0476 74.5134 43.6925C74.5134 44.015 74.6737 44.3374 74.6737 44.8211C74.8339 45.1435 74.9942 45.6272 75.1544 45.9497C75.6351 46.7558 76.2761 47.2395 76.9171 47.5619C77.558 47.8844 77.8785 48.0456 77.8785 48.0456C77.8785 48.0456 78.0388 47.5619 78.0388 46.7558C78.0388 46.4333 78.0388 46.1109 77.8785 45.6272Z" fill="#F5EFDB" fill-opacity="1.000000" fill-rule="nonzero"/>
	<path id="Vector" d="M78.8397 41.4349C78.8397 40.9512 78.6794 40.3063 78.3589 39.6614C78.1987 39.339 78.0385 39.0166 77.718 38.6941C77.077 38.0492 76.2758 37.7267 75.6348 37.5655C74.9938 37.4043 74.5131 37.4043 74.5131 37.4043C74.5131 37.4043 74.0323 37.4043 73.3914 37.7268C72.7504 37.888 71.9492 38.3716 71.4684 39.0165C71.148 39.339 70.9877 39.5002 70.8275 39.8227C70.507 40.3063 70.3468 40.79 70.3468 41.2737C70.3468 41.4349 70.3467 41.5961 70.1865 41.7574C70.1865 41.9186 70.1865 41.9186 70.1865 41.9186C70.1865 41.9186 70.6672 41.9186 71.3082 41.7574C71.9492 41.5961 72.7504 41.2737 73.3914 40.6288C73.7119 40.3063 73.8721 40.1451 74.0323 39.8227C74.3528 39.339 74.3528 38.6941 74.5131 38.3716C74.5131 37.888 74.5131 37.5655 74.5131 37.5655C74.5131 37.5655 74.5131 37.888 74.6733 38.3716C74.8336 38.8553 74.8336 39.339 75.1541 39.9839C75.3143 40.3063 75.4745 40.6288 75.795 40.9512C76.436 41.5961 77.077 42.0798 77.718 42.241C78.3589 42.5635 78.8397 42.5635 78.8397 42.5635L78.8397 42.4023C78.8397 41.9186 78.8397 41.5961 78.8397 41.4349Z" fill="#F5EFDB" fill-opacity="1.000000" fill-rule="nonzero"/>
	<path id="Vector" d="M63.1358 65.6185C63.1358 65.6185 62.8153 65.2961 62.1744 64.9736C61.5334 64.6512 60.8924 64.3287 59.931 64.1675C59.6105 64.1675 59.29 64.1675 58.9695 64.1675C58.3285 64.3287 57.8478 64.4899 57.5273 64.6511C57.2068 64.8123 56.8863 64.9736 56.8863 64.9736C56.8863 64.9736 57.2068 65.2961 57.6875 65.7797C58.1682 66.2634 58.9695 66.5859 59.7707 66.7471C60.0912 66.7471 60.4117 66.7471 60.7322 66.7471C61.3731 66.5859 61.8539 66.4247 62.1744 66.1022C62.9756 65.941 63.1358 65.7797 63.1358 65.6185C63.1358 65.6185 62.8153 65.9409 62.6551 66.2634C62.3346 66.5858 62.0141 67.0695 61.8539 67.5532C61.6936 67.8757 61.5334 68.1981 61.5334 68.5206C61.3731 69.3267 61.5334 70.294 61.6936 70.939C61.8539 71.5839 62.1744 72.0675 62.1744 72.0675C62.1744 72.0675 62.4948 71.9063 62.8153 71.5838C63.1358 71.2614 63.6166 70.7777 63.937 70.1328C64.0973 69.8104 64.2575 69.4879 64.2575 69.0042C64.4178 68.0369 64.0973 67.2307 63.937 66.5858C63.4563 66.1022 63.1358 65.6185 63.1358 65.6185Z" fill="#F5EFDB" fill-opacity="1.000000" fill-rule="nonzero"/>
	<path id="Vector" d="M66.8213 61.9102C66.8213 61.9102 66.3406 61.5877 65.8599 61.4265C65.2189 61.1041 64.4177 60.9429 63.6164 60.9429C63.4562 60.9429 63.1357 60.9429 62.9755 61.1041C62.8152 61.1041 62.655 61.2654 62.4947 61.2654C62.1743 61.4266 61.8538 61.5878 61.6935 61.749C61.373 61.9102 61.2128 62.0715 61.0526 62.0715C60.8923 62.2327 60.8923 62.2327 60.8923 62.2327C60.8923 62.2327 61.2128 62.5551 61.8538 62.8776C62.1743 63.0388 62.4947 63.2 62.8152 63.3612C62.9755 63.3612 63.1357 63.5225 63.4562 63.5225C63.6165 63.5225 63.9369 63.5225 64.0972 63.5225C64.5779 63.5225 64.8984 63.3612 65.2189 63.2C65.5394 63.0388 65.8599 62.8776 66.1804 62.7164C66.3406 62.2327 66.6611 61.9102 66.8213 61.9102C66.8213 61.9102 66.5008 62.3939 66.1804 62.8776C66.0201 63.2 65.8599 63.5225 65.6996 63.8449C65.5394 64.1674 65.5394 64.651 65.5394 64.9735C65.5394 65.1347 65.5394 65.4572 65.5394 65.6184C65.5394 65.7796 65.5394 66.1021 65.6996 66.2633C65.8599 66.5857 65.8599 67.0694 66.0201 67.3919C66.3406 68.0368 66.6611 68.3592 66.6611 68.3592C66.6611 68.3592 66.8213 68.198 66.9816 68.0368C67.1418 67.8755 67.3021 67.5531 67.4623 67.3919C67.6226 67.0694 67.7828 66.7469 67.9431 66.2633C67.9431 66.1021 68.1033 65.7796 68.1033 65.6184C68.1033 65.4572 68.1033 65.1347 68.1033 64.9735C68.1033 64.0061 67.7828 63.2 67.4623 62.7164C67.1418 62.2327 66.8213 61.9102 66.8213 61.9102Z" fill="#F5EFDB" fill-opacity="1.000000" fill-rule="nonzero"/>
	<path id="Vector" d="M70.6672 58.3629C70.1865 57.8792 69.866 57.5568 69.866 57.5568C69.866 57.5568 69.3853 57.3956 68.7443 57.2344C68.1033 57.0732 67.3021 56.9119 66.5009 57.0731C65.6997 57.2343 65.0587 57.718 64.578 58.0405C64.4177 58.2017 64.0972 58.3629 64.0972 58.5241C63.937 58.6854 63.937 58.6854 63.937 58.6854C63.937 58.6854 64.4177 59.0078 64.8984 59.169C65.5394 59.4915 66.3406 59.6527 67.1419 59.4915C67.6226 59.4915 67.9431 59.3302 68.2636 59.0078C68.584 58.8466 68.9045 58.5241 69.0648 58.3629C69.225 58.2017 69.5455 57.8792 69.5455 57.718C69.7058 57.5568 69.7057 57.3955 69.7057 57.3955C69.7057 57.3955 69.5455 57.5568 69.5455 57.718C69.3853 57.8792 69.3853 58.2017 69.225 58.5241C69.0648 58.8466 69.0648 59.169 68.9045 59.6527C68.9045 59.9752 68.7443 60.4588 68.9045 60.9425C69.0648 61.9099 69.3853 62.5547 69.7057 63.1996C70.0262 63.8445 70.3467 64.167 70.3467 64.167C70.3467 64.167 70.507 64.0057 70.507 63.8445C70.6672 63.6833 70.8275 63.3608 70.9877 63.0384C71.3082 62.3935 71.6287 61.4261 71.4684 60.62C71.4684 59.4915 70.9877 58.8466 70.6672 58.3629Z" fill="#F5EFDB" fill-opacity="1.000000" fill-rule="nonzero"/>
	<path id="Vector" d="M49.0344 72.39C48.7139 71.9063 48.0729 71.1002 47.4319 70.7777C47.1115 70.6165 46.791 70.4552 46.4705 70.294C46.15 70.1328 45.9897 70.1328 45.6693 70.1328C45.3488 70.1328 45.1885 70.1328 45.0283 70.1328C44.7078 70.1328 44.3873 70.1328 44.3873 70.1328C44.3873 70.1328 44.5475 70.6165 44.7078 71.2614C45.0283 71.9062 45.509 72.5511 46.15 73.0348C46.4705 73.196 46.791 73.3573 47.1115 73.3573C48.2332 73.6797 49.3549 73.3573 49.5151 73.3573C49.3549 73.3573 48.3934 73.6797 47.4319 74.4858C47.1115 74.6471 46.9512 74.9695 46.6307 75.292C46.15 75.9369 45.8295 76.9042 45.6693 77.5491C45.509 78.194 45.509 78.6777 45.509 78.6777C45.509 78.6777 45.8295 78.6777 46.3102 78.5164C46.4705 78.5164 46.791 78.3553 47.1115 78.194C47.4319 78.0328 47.7524 77.8716 47.9127 77.7103C48.2332 77.5491 48.5536 77.2267 48.7139 76.9042C49.1946 76.0981 49.3549 75.292 49.3549 74.6471C49.3549 74.0022 49.3549 73.5185 49.3549 73.5185C49.3549 73.5185 49.3549 72.8736 49.0344 72.39Z" fill="#F5EFDB" fill-opacity="1.000000" fill-rule="nonzero"/>
	<path id="Vector" d="M54.4826 71.5841C54.4826 71.5841 54.1621 71.1004 53.8417 70.6167C53.3609 70.1331 52.72 69.4882 52.079 69.1657C51.7585 69.0045 51.2778 68.8433 50.9573 68.8433C50.6368 68.8433 50.3163 68.8433 49.9958 68.8433C49.3549 68.8433 49.0344 69.0045 49.0344 69.0045C49.0344 69.0045 49.1946 69.4882 49.5151 69.9719C49.8356 70.4555 50.4766 71.1004 51.2778 71.5841C52.079 71.9066 52.8802 71.9066 53.5212 71.7453C54.0019 71.7453 54.4826 71.5841 54.4826 71.5841C54.4826 71.5841 54.0019 71.7453 53.5212 72.229C53.0405 72.5514 52.3995 73.1964 52.079 74.0025C51.5983 74.8086 51.5983 75.6147 51.438 76.2596C51.438 76.9045 51.5982 77.3882 51.5982 77.3882C51.5982 77.3882 52.079 77.2269 52.72 76.9045C53.0405 76.7433 53.3609 76.4208 53.6814 76.0984C54.0019 75.7759 54.3224 75.4535 54.4826 74.9698C54.9633 74.1637 54.9633 73.1964 54.8031 72.5515C54.6429 71.9066 54.4826 71.5841 54.4826 71.5841Z" fill="#F5EFDB" fill-opacity="1.000000" fill-rule="nonzero"/>
	<path id="Vector" d="M59.13 68.8425C59.13 68.8425 58.8095 68.52 58.3287 68.0363C57.848 67.5527 57.0468 67.069 56.2456 66.9078C55.7648 66.7466 55.4443 66.7466 55.1239 66.7466C54.8034 66.7466 54.4829 66.9078 54.1624 66.9078C53.5214 67.069 53.2009 67.2302 53.2009 67.2302C53.2009 67.2302 53.5214 67.7139 53.8419 68.1976C54.3226 68.6813 54.9636 69.1649 55.7648 69.4874C56.0853 69.6486 56.566 69.6486 56.8865 69.6486C57.207 69.6486 57.6877 69.4874 57.848 69.4874C58.6492 69.1649 58.9697 69.0037 59.13 68.8425C59.13 68.8425 58.6492 69.1649 58.1685 69.6486C58.0082 69.8098 57.6878 70.1323 57.5275 70.4547C57.3673 70.7772 57.0468 71.0996 56.8865 71.5833C56.566 72.3894 56.5661 73.3568 56.7263 74.0017C56.8865 74.6466 57.0468 75.1302 57.0468 75.1302C57.0468 75.1302 57.5275 74.969 58.1685 74.4853C58.489 74.3241 58.8094 74.0016 58.9697 73.6792C59.2902 73.3568 59.4504 72.8731 59.6107 72.5507C59.9312 71.7445 59.7709 70.7772 59.6107 70.1323C59.2902 69.3262 59.13 68.8425 59.13 68.8425Z" fill="#F5EFDB" fill-opacity="1.000000" fill-rule="nonzero"/>
	<path id="Vector" d="M33.9718 73.3583C33.8115 72.7134 33.6513 71.9073 33.1706 71.1012C33.0103 70.7787 32.6898 70.6175 32.5296 70.295C32.3694 70.1338 32.0489 69.9726 31.8886 69.8114C31.7284 69.6502 31.4079 69.4889 31.2477 69.4889C30.9272 69.3277 30.6067 69.1665 30.6067 69.1665C30.6067 69.1665 30.4464 69.6501 30.4464 70.295C30.4464 70.9399 30.6067 71.7461 31.0874 72.5522C31.2477 72.8747 31.5681 73.0359 31.7284 73.3583C31.8886 73.5196 32.2091 73.6808 32.3693 73.842C32.5296 74.0032 32.8501 74.0032 33.0103 74.1645C33.4911 74.3257 33.6513 74.3257 33.8116 74.3257C33.8116 74.3257 33.4911 74.3257 33.0103 74.3257C32.8501 74.3257 32.5296 74.3257 32.2091 74.3257C31.8886 74.3257 31.5682 74.3257 31.4079 74.4869C31.0874 74.4869 30.7669 74.6481 30.4464 74.8094C29.6452 75.293 29.0043 75.7767 28.6838 76.4216C28.3633 76.9053 28.0428 77.3889 28.0428 77.3889C28.0428 77.3889 28.3633 77.5501 28.844 77.5501C29.1645 77.5501 29.3247 77.5501 29.6452 77.5501C29.9657 77.5501 30.2862 77.5502 30.6067 77.3889C30.9272 77.3889 31.2477 77.2277 31.7284 77.0665C32.5296 76.5828 33.0103 75.9379 33.3308 75.293C33.6513 74.6481 33.8116 74.1645 33.8116 74.1645C33.8116 74.1645 34.132 74.0032 33.9718 73.3583Z" fill="#F5EFDB" fill-opacity="1.000000" fill-rule="nonzero"/>
	<path id="Vector" d="M37.9776 71.7451C37.6571 71.4226 37.3366 71.2614 37.0162 70.9389C36.6957 70.7777 36.3752 70.6165 36.215 70.4552C35.7342 70.294 35.2535 70.1328 35.2535 70.1328C35.2535 70.1328 35.2535 70.6165 35.2535 71.2614C35.4137 71.9062 35.574 72.7124 36.215 73.3573C36.5354 73.6797 36.8559 73.841 37.1764 74.1634C37.4969 74.3246 37.8174 74.4858 38.1378 74.6471C38.7788 74.8083 39.2595 74.8083 39.2595 74.8083C39.2595 74.8083 38.7788 74.8083 38.1378 74.9695C37.8174 74.9695 37.4969 75.1307 37.1764 75.2919C36.8559 75.4532 36.3752 75.6144 36.0547 75.9368C35.4137 76.4205 34.933 77.2266 34.6125 77.7103C34.292 78.3552 34.1318 78.8389 34.1318 78.8389C34.1318 78.8389 34.6125 78.8389 35.4137 78.8389C36.215 78.8389 37.0162 78.5164 37.8174 78.0328C38.6186 77.3879 38.9391 76.743 39.0993 76.0981C39.2596 75.4532 39.4198 74.9695 39.4198 74.9695C39.4198 74.9695 39.4198 74.4858 39.2595 73.8409C38.7788 73.0348 38.4583 72.39 37.9776 71.7451Z" fill="#F5EFDB" fill-opacity="1.000000" fill-rule="nonzero"/>
	<path id="Vector" d="M44.0673 73.5183C43.7468 72.8734 43.4263 72.2286 42.7853 71.5837C42.4648 71.2612 42.1443 71.1 41.8239 70.9388C41.5034 70.7776 41.1829 70.7775 40.8624 70.6163C40.2214 70.4551 39.9009 70.4551 39.9009 70.4551C39.9009 70.4551 39.9009 70.9388 40.0612 71.5837C40.2214 72.2286 40.5419 73.0347 41.1829 73.5183C41.8239 74.002 42.6251 74.3245 43.2661 74.3245C43.907 74.3245 44.3878 74.3245 44.3878 74.3245C44.3878 74.3245 43.907 74.3245 43.2661 74.6469C42.6251 74.8082 41.9841 75.1306 41.3431 75.7755C40.7021 76.4204 40.3817 77.2266 40.0612 77.8715C39.9009 78.5164 39.7407 79 39.7407 79C39.7407 79 40.2214 79 41.0226 78.8388C41.3431 78.8388 41.8239 78.6776 42.1443 78.3551C42.4648 78.1939 42.9456 77.8714 43.2661 77.549C43.907 76.9041 44.2275 76.098 44.2275 75.4531C44.3878 74.8082 44.3878 74.3245 44.3878 74.3245C44.3878 74.3245 44.3878 74.002 44.0673 73.5183Z" fill="#F5EFDB" fill-opacity="1.000000" fill-rule="nonzero"/>
	<path id="Vector" d="M19.5496 68.5206C19.5496 68.5206 19.7099 68.0369 20.0304 67.392C20.1906 66.7471 20.3508 65.941 20.3508 65.1349C20.3508 64.8124 20.1906 64.49 20.0304 64.1675C19.8701 63.6838 19.5496 63.2002 19.2291 62.8777C19.0689 62.7165 19.0689 62.5553 18.9087 62.5553C18.7484 62.5553 18.7484 62.394 18.7484 62.394C18.7484 62.394 18.4279 62.7165 18.1075 63.3614C17.787 64.0063 17.6267 64.8124 17.6267 65.6185C17.6267 65.941 17.787 66.2635 17.9472 66.5859C18.5882 67.8757 19.5496 68.5206 19.5496 68.5206C19.3894 68.5206 18.5882 67.8757 17.3062 67.5533C16.9858 67.5533 16.6653 67.392 16.1846 67.392C15.3833 67.392 14.4219 67.7144 13.9411 68.0369C13.3002 68.3593 12.9797 68.6818 12.9797 68.6818C12.9797 68.6818 12.9797 68.6818 13.1399 68.843C13.3002 69.0042 13.4604 69.0043 13.6207 69.1655C14.1014 69.4879 14.5821 69.8104 15.2231 69.9716C15.5436 70.1328 16.0243 70.1328 16.3448 70.1328C17.3062 70.1328 18.1075 69.6492 18.5882 69.3267C19.2292 69.0043 19.5496 68.5206 19.5496 68.5206Z" fill="#F5EFDB" fill-opacity="1.000000" fill-rule="nonzero"/>
	<path id="Vector" d="M24.0365 71.2617C24.0365 71.2617 24.1968 70.778 24.357 70.1331C24.5173 69.4882 24.5173 68.6821 24.357 67.8759C24.1968 67.3923 24.0366 67.0699 23.8763 66.7474C23.7161 66.5862 23.7161 66.4249 23.5558 66.2637C23.3956 66.1025 23.3956 65.9413 23.2353 65.9413C22.9148 65.4576 22.4341 65.2964 22.4341 65.2964C22.4341 65.2964 22.2739 65.78 21.9534 66.4249C21.7931 67.0698 21.6329 67.8759 21.7932 68.6821C21.9534 69.1657 22.1136 69.4882 22.2739 69.8106C22.4341 70.1331 22.7546 70.4555 22.9148 70.6168C23.5558 70.9392 24.0365 71.2617 24.0365 71.2617C24.0365 71.2617 23.5558 70.9392 22.9148 70.778C22.5944 70.778 22.2739 70.6168 21.7932 70.6168C21.4727 70.6168 20.9919 70.6168 20.5112 70.6168C19.71 70.778 18.9087 71.2617 18.428 71.5841C17.9473 72.0678 17.6268 72.3902 17.6268 72.3902C17.6268 72.3902 18.1075 72.7127 18.7485 72.8739C18.9087 72.8739 19.069 73.0351 19.2292 73.0351C19.3895 73.0351 19.71 73.1964 19.8702 73.1964C20.351 73.1964 20.6714 73.1964 21.1522 73.1964C22.1136 73.0351 22.7546 72.5515 23.2353 72.0678C23.8763 71.7453 24.0365 71.2617 24.0365 71.2617Z" fill="#F5EFDB" fill-opacity="1.000000" fill-rule="nonzero"/>
	<path id="Vector" d="M29.0041 73.1958C29.0041 73.1958 29.1643 72.7121 29.1643 72.0672C29.1643 71.4223 29.1644 70.6161 28.6836 69.81C28.5234 69.4876 28.3631 69.1651 28.0426 68.8427C27.8824 68.5202 27.5619 68.359 27.4017 68.1978C26.921 67.8753 26.6005 67.7141 26.6005 67.7141C26.6005 67.7141 26.4402 68.1978 26.28 68.8427C26.1198 69.4875 26.1198 70.2937 26.4402 71.0998C26.6005 71.4223 26.7607 71.7447 27.0812 72.0672C27.4017 72.3896 27.5619 72.5508 27.8824 72.7121C28.3632 73.0345 28.8439 73.1958 29.0041 73.1958C29.0041 73.1958 28.5234 73.0345 27.8824 73.0345C27.5619 73.0345 27.2414 73.0345 26.7607 73.0345C26.4402 73.0345 25.9595 73.1958 25.639 73.1958C24.8378 73.5182 24.1968 74.0019 23.7161 74.4856C23.2354 74.9692 23.0751 75.4529 23.0751 75.4529C23.0751 75.4529 23.5558 75.6142 24.1968 75.7754C24.5173 75.9366 24.998 75.9366 25.3185 75.9366C25.7993 75.9366 26.1198 75.9366 26.6005 75.7754C27.4017 75.4529 28.0427 74.808 28.5234 74.3243C28.6836 73.6794 29.0041 73.1958 29.0041 73.1958Z" fill="#F5EFDB" fill-opacity="1.000000" fill-rule="nonzero"/>
	<path id="Vector" d="M8.01227 57.2352C8.6532 57.074 9.13397 56.9127 9.13397 56.9127C9.13397 56.9127 9.45441 56.5903 9.93518 56.1066C10.0954 55.9454 10.4159 55.6229 10.5762 55.3005C10.7364 54.978 11.0569 54.6556 11.0569 54.1719C11.2172 53.8495 11.2171 53.527 11.2171 53.2046C11.2171 52.5597 11.2172 52.076 11.0569 51.7535C11.0569 51.5923 10.8967 51.4311 10.8967 51.2699C10.8967 51.1086 10.8967 51.1086 10.8967 51.1086C10.8967 51.1086 10.4159 51.2699 9.93518 51.7535C9.61469 51.9148 9.45441 52.2372 9.13397 52.5597C8.81348 52.8821 8.6532 53.2046 8.49298 53.6882C8.33276 54.0107 8.3327 54.3332 8.3327 54.6556C8.3327 55.3005 8.49298 55.7842 8.65326 56.2679C8.81348 56.7515 8.97369 56.9128 8.97369 57.074C8.97369 57.074 8.81348 56.7515 8.49298 56.4291C8.17249 56.1066 7.85199 55.6229 7.37128 55.3005C7.05078 55.1393 6.73029 54.8168 6.40979 54.8168C5.92908 54.6556 5.60858 54.4944 5.12787 54.4944C4.64716 54.4944 4.32666 54.4944 4.00616 54.4944C3.36517 54.4944 2.88446 54.6556 2.88446 54.6556C2.88446 54.6556 2.88446 54.6556 3.04474 54.8168C3.04474 54.9781 3.20496 55.1393 3.36517 55.3005C3.68567 55.7841 4.00616 56.2678 4.48688 56.7515C4.80737 56.9127 5.12787 57.2352 5.44836 57.3964C5.92908 57.5576 6.24957 57.7188 6.73029 57.7188C7.211 57.3964 7.69177 57.3964 8.01227 57.2352Z" fill="#F5EFDB" fill-opacity="1.000000" fill-rule="nonzero"/>
	<path id="Vector" d="M10.8964 61.9111C11.5374 61.7499 11.8578 61.4274 11.8578 61.4274C11.8578 61.4274 12.1783 61.105 12.6591 60.6213C12.9796 60.1376 13.4603 59.3315 13.6205 58.5254C13.6205 58.0417 13.6205 57.7193 13.6205 57.3968C13.6205 57.0744 13.4603 56.752 13.4603 56.4295C13.3 55.9458 13.1398 55.4622 13.1398 55.4622C13.1398 55.4622 12.8193 55.7846 12.3386 56.2683C11.8578 56.752 11.3771 57.3968 11.2169 58.3642C11.0566 59.1703 11.2169 59.9764 11.5374 60.6213C11.6976 60.9438 11.8578 61.105 11.8578 61.2663C12.0181 61.4275 12.0181 61.5887 12.0181 61.5887C11.8578 61.4275 10.8964 60.1377 9.13367 59.654C8.33246 59.4928 7.37103 59.4928 6.73004 59.654C6.08905 59.8152 5.60834 59.9764 5.60834 59.9764C5.60834 59.9764 5.92883 60.4601 6.40955 60.9438C6.73004 61.2662 6.89032 61.4275 7.37103 61.7499C7.69153 61.9111 8.17224 62.2336 8.65295 62.2336C9.45422 62.2336 10.2554 62.0724 10.8964 61.9111Z" fill="#F5EFDB" fill-opacity="1.000000" fill-rule="nonzero"/>
	<path id="Vector" d="M14.582 65.9409C15.223 65.6184 15.5435 65.296 15.5435 65.296C15.5435 65.296 15.864 64.9735 16.1844 64.3286C16.3447 64.0062 16.5049 63.6837 16.6652 63.3613C16.6652 63.2001 16.8254 63.0388 16.8254 62.7164C16.8254 62.5552 16.8254 62.2327 16.8254 62.0715C16.8254 61.5878 16.8254 61.2654 16.6652 60.9429C16.5049 60.6205 16.5049 60.298 16.3447 59.9756C16.1844 59.6531 16.0242 59.4919 16.0242 59.3307C15.864 59.1694 15.864 59.1694 15.864 59.1694C15.864 59.1694 15.5435 59.4919 15.0627 59.9756C14.7423 60.4592 14.2615 61.2654 14.2615 62.0715C14.2615 62.2327 14.2615 62.5552 14.2615 62.7164C14.2615 62.8776 14.4218 63.0388 14.4218 63.2C14.582 63.5225 14.7422 63.845 14.9025 64.1674C15.223 64.6511 15.5435 64.9735 15.7037 65.1348C15.7037 65.1348 15.223 64.8123 14.7422 64.4899C14.4218 64.3286 14.1013 64.1674 13.7808 64.0062C13.6205 64.0062 13.4603 63.8449 13.1398 63.8449C12.9796 63.8449 12.8193 63.6837 12.4988 63.6837C11.6976 63.5225 10.7362 63.8449 10.0952 64.0062C9.45422 64.1674 9.13373 64.4899 9.13373 64.4899C9.13373 64.4899 9.29401 64.6511 9.29401 64.8123C9.45422 64.9735 9.61444 65.1347 9.93494 65.4572C10.2554 65.6184 10.5759 65.9409 10.8964 66.1021C11.2169 66.2633 11.6976 66.4245 12.1784 66.4245C12.3386 66.4245 12.6591 66.4245 12.8193 66.4245C12.9796 66.4245 13.3001 66.4245 13.4603 66.2633C13.941 66.2633 14.2615 66.1021 14.582 65.9409Z" fill="#F5EFDB" fill-opacity="1.000000" fill-rule="nonzero"/>
	<path id="Vector" d="M1.44177 40.6284C2.08276 41.2733 2.88397 41.5958 3.52496 41.757C4.16589 41.9182 4.64667 41.9182 4.64667 41.9182C4.64667 41.9182 5.12738 41.9182 5.76837 41.5958C6.40936 41.4345 7.21057 40.9509 7.69128 40.306C8.01178 39.9836 8.172 39.8223 8.33228 39.4999C8.65271 39.0162 8.81299 38.5325 8.81299 38.0488C8.81299 37.8876 8.81299 37.7264 8.97327 37.5652C8.97327 37.4039 8.97327 37.4039 8.97327 37.4039C8.97327 37.4039 8.49249 37.4039 7.85156 37.5652C7.21057 37.7264 6.40936 38.0489 5.76837 38.6938C5.44788 39.0162 5.2876 39.1774 5.12738 39.4999C4.80688 39.9836 4.80688 40.6284 4.64667 40.9509C4.64667 41.4345 4.64667 41.757 4.64667 41.757C4.64667 41.757 4.64667 41.4345 4.48639 40.9509C4.32617 40.4672 4.32617 39.9836 4.00568 39.4999C3.84546 39.1774 3.68518 38.8549 3.36469 38.5325C2.72375 37.8876 2.08276 37.404 1.44177 37.0815C0.800842 36.7591 0.320068 36.759 0.320068 36.759L0.320068 36.9203C0.320068 37.0815 0.320068 37.2427 0.320068 37.5652C0.320068 38.0488 0.480347 38.6937 0.800781 39.3386C0.96106 39.9835 1.12128 40.306 1.44177 40.6284Z" fill="#F5EFDB" fill-opacity="1.000000" fill-rule="nonzero"/>
	<path id="Vector" d="M1.92291 46.2713C2.5639 46.9162 3.52539 47.0774 4.16632 47.0774C4.80731 47.0774 5.28802 47.0774 5.28802 47.0774C5.28802 47.0774 5.7688 46.9162 6.24951 46.5938C6.8905 46.2713 7.53143 45.7877 8.01215 45.1428C8.49292 44.4979 8.65314 43.6917 8.81342 43.2081C8.81342 43.0468 8.81342 42.8856 8.81342 42.8856C8.81342 42.7244 8.81342 42.7244 8.81342 42.5632C8.81342 42.402 8.81342 42.2407 8.81342 42.2407C8.81342 42.2407 8.33264 42.2408 7.69171 42.5632C7.37122 42.7244 7.05072 42.8856 6.73022 43.0468C6.40973 43.2081 6.08923 43.5305 5.7688 43.853C5.4483 44.1754 5.28802 44.4979 5.28802 44.9815C5.12781 45.304 5.12781 45.6264 5.12781 45.9489C5.12781 46.2713 5.12781 46.5938 5.12781 46.755C5.12781 46.9162 5.12781 47.0774 5.12781 47.0774C5.12781 47.0774 5.12781 46.9162 4.96753 46.755C4.96753 46.5938 4.80731 46.2713 4.64709 45.9489C4.48682 45.6264 4.3266 45.304 4.16632 44.9815C4.0061 44.6591 3.68561 44.3366 3.36511 44.0142C3.04462 43.6917 2.72418 43.5305 2.24341 43.3693C1.92291 43.2081 1.4422 43.0468 1.1217 43.0468C0.480713 42.8856 0 42.8856 0 42.8856C0 42.8856 0 43.0468 0 43.2081C0 43.3693 0 43.5305 0 43.5305C0 43.6918 0.160278 43.853 0.160278 44.0142C0.801208 44.8203 1.28192 45.6264 1.92291 46.2713Z" fill="#F5EFDB" fill-opacity="1.000000" fill-rule="nonzero"/>
	<path id="Vector" d="M5.60864 52.3977C6.24963 52.3977 6.73035 52.2365 6.73035 52.2365C6.73035 52.2365 7.21106 52.0753 7.69177 51.5916C8.17255 51.1079 8.81348 50.6243 9.13397 49.8181C9.29425 49.4957 9.45447 49.012 9.45447 48.6895C9.45447 48.3671 9.61469 48.0446 9.61469 47.7222C9.61469 47.561 9.61469 47.3998 9.61469 47.3998C9.61469 47.2386 9.61469 47.2385 9.61469 47.0773C9.61469 46.9161 9.61469 46.7549 9.61469 46.7549C9.61469 46.7549 9.13397 46.9161 8.65326 47.2385C8.33276 47.3997 8.01227 47.561 7.69177 47.8834C7.37134 48.2059 7.21106 48.5283 6.89056 48.8508C6.73035 49.1732 6.57013 49.6569 6.57013 49.9794C6.57013 50.3018 6.57013 50.7855 6.57013 51.1079C6.57013 51.7528 6.73035 52.2365 6.89056 52.2365C6.89056 52.2365 6.73035 51.7528 6.40985 51.1079C6.24963 50.7855 6.08936 50.463 5.76886 50.3018C5.44843 49.9793 5.28815 49.6569 4.80743 49.4957C4.48694 49.3344 4.00623 49.012 3.68573 49.012C3.36523 48.8508 2.88452 48.8508 2.56403 48.8508C1.92303 48.8508 1.44232 48.8508 1.44232 48.8508C1.44232 48.8508 1.44232 49.012 1.60254 49.1732C1.60254 49.3345 1.60254 49.3344 1.76282 49.4957C1.76282 49.6569 1.92303 49.8181 1.92303 49.9794C2.08325 50.3018 2.24353 50.6242 2.56403 50.9467C2.88452 51.2691 3.20496 51.5916 3.52545 51.7528C4.16644 52.2365 4.96765 52.3977 5.60864 52.3977Z" fill="#F5EFDB" fill-opacity="1.000000" fill-rule="nonzero"/>
	<path id="Vector" d="M5.28778 24.9893C5.44806 25.3117 5.76849 25.6342 6.08899 25.7954C6.56976 26.2791 7.05048 26.4403 7.05048 26.4403C7.05048 26.4403 7.53119 26.6015 8.17218 26.6015C8.49268 26.6015 8.81317 26.6015 9.29388 26.6015C9.61438 26.6015 10.0951 26.4403 10.4156 26.2791C10.7361 26.1178 11.0566 25.9566 11.2168 25.7954C11.6975 25.473 12.018 25.1505 12.3385 24.8281C12.4987 24.6668 12.4988 24.5056 12.659 24.5056C12.659 24.3444 12.8192 24.3444 12.8192 24.3444C12.8192 24.3444 12.3385 24.1832 11.6975 24.0219C11.3771 24.0219 11.0566 23.8607 10.5758 23.8607C10.2554 23.8607 9.7746 23.8607 9.29388 24.0219C8.97339 24.1832 8.65289 24.3444 8.3324 24.5056C7.85168 24.828 7.53119 25.3117 7.21069 25.6342C6.8902 25.9566 6.8902 26.2791 6.8902 26.2791C6.8902 26.2791 7.05048 25.9566 7.05048 25.4729C7.21069 24.9893 7.21069 24.5056 7.21069 23.8607C7.21069 23.5382 7.21069 23.2158 7.05048 22.7321C6.89026 22.2484 6.72998 21.926 6.56976 21.6035C6.40948 21.2811 6.08899 20.9586 5.92877 20.6362C5.448 20.1525 5.12756 19.8301 5.12756 19.8301C5.12756 19.8301 5.12756 19.8301 4.96729 19.9913C4.96729 20.1525 4.80707 20.3138 4.80707 20.475C4.64679 20.9586 4.48657 21.6035 4.48657 22.2484C4.48657 22.5709 4.48657 23.0546 4.64685 23.377C4.96729 24.1832 5.12756 24.6668 5.28778 24.9893Z" fill="#F5EFDB" fill-opacity="1.000000" fill-rule="nonzero"/>
	<path id="Vector" d="M2.8844 29.1824C3.04462 29.666 3.36511 29.9885 3.68561 30.3109C4.0061 30.6334 4.3266 30.7946 4.48682 30.9558C5.12781 31.2783 5.4483 31.4395 5.4483 31.4395C5.4483 31.4395 5.92902 31.4395 6.57001 31.4395C6.8905 31.4395 7.21094 31.4395 7.69171 31.2783C8.01221 31.1171 8.49292 31.1171 8.81342 30.7946C9.13385 30.6334 9.45441 30.3109 9.77484 30.1497C10.0953 29.8273 10.2556 29.666 10.4158 29.3436C10.576 29.0211 10.7363 28.8599 10.7363 28.6987C10.8965 28.5375 10.8965 28.3763 10.8965 28.3763C10.8965 28.3763 10.4158 28.2151 9.77484 28.2151C9.13391 28.2151 8.33264 28.215 7.53143 28.5375C7.21094 28.6987 6.8905 29.0211 6.57001 29.3436C6.24951 29.666 6.08923 29.9885 5.92902 30.1497C5.60852 30.6334 5.4483 31.1171 5.4483 31.2783C5.4483 31.2783 5.60852 30.7946 5.60852 30.1497C5.60852 29.8273 5.60852 29.5049 5.60852 29.0212C5.60852 28.6987 5.4483 28.215 5.28802 27.8926C4.96753 27.0865 4.3266 26.4416 3.84589 25.9579C3.36511 25.4742 2.8844 25.313 2.8844 25.313C2.8844 25.313 2.8844 25.4742 2.72412 25.6355C2.72412 25.7967 2.5639 26.1191 2.5639 26.4416C2.5639 26.764 2.5639 27.2477 2.5639 27.5701C2.5639 28.3763 2.5639 28.6987 2.8844 29.1824Z" fill="#F5EFDB" fill-opacity="1.000000" fill-rule="nonzero"/>
	<path id="Vector" d="M1.1217 33.5341C1.28192 34.0178 1.4422 34.3402 1.60242 34.8239C1.92291 35.1463 2.08313 35.4688 2.40363 35.7912C2.72412 36.1136 3.04462 36.2749 3.36511 36.2749C4.0061 36.5974 4.48682 36.5973 4.48682 36.5973C4.48682 36.5973 4.96753 36.5973 5.60852 36.4361C5.92902 36.4361 6.24951 36.2749 6.57001 36.1137C6.8905 35.9525 7.37122 35.7912 7.69171 35.4688C8.01221 35.1463 8.33264 34.9851 8.49292 34.6627C8.65314 34.3402 8.81342 34.0178 8.97363 33.8565C9.13391 33.3729 9.29413 32.8892 9.29413 32.8892C9.29413 32.8892 8.81342 32.8892 8.17242 32.8892C7.53143 32.8892 6.73022 33.0504 5.92902 33.6953C5.60852 34.0178 5.28802 34.179 5.12781 34.5014C4.96753 34.8239 4.80731 35.1463 4.64709 35.4688C4.48682 36.1137 4.32654 36.5973 4.32654 36.5973C4.32654 36.5973 4.32654 36.1137 4.32654 35.4688C4.32654 35.1463 4.16632 34.8239 4.16632 34.3402C4.0061 34.0178 3.84583 33.5341 3.68561 33.2116C3.2049 32.4055 2.5639 31.9218 1.92291 31.5994C1.28192 31.2769 0.961487 31.1157 0.961487 31.1157C0.961487 31.1157 0.801208 31.5994 0.801208 32.4055C1.1217 32.7279 1.1217 33.2116 1.1217 33.5341Z" fill="#F5EFDB" fill-opacity="1.000000" fill-rule="nonzero"/>
	<path id="Vector" d="M16.0241 13.5435C16.0241 13.5435 16.3446 13.8659 16.9856 14.1883C17.6265 14.5108 18.2675 14.8332 19.229 14.9944C19.5494 14.9944 19.8699 14.9944 20.1904 14.9944C20.8314 14.8332 21.3121 14.672 21.6326 14.5108C21.9531 14.3496 22.2736 14.1883 22.2736 14.1883C22.2736 14.1883 21.9531 13.8659 21.4724 13.3822C20.9917 12.8985 20.1904 12.5761 19.3892 12.4149C19.0687 12.4149 18.7482 12.4149 18.4277 12.4149C17.7868 12.5761 17.3061 12.7373 16.9856 13.0598C16.1844 13.3822 16.0241 13.5435 16.0241 13.5435C16.0241 13.5435 16.3446 13.221 16.5048 12.8986C16.8253 12.5761 17.1458 12.0924 17.306 11.6087C17.4663 11.2863 17.6265 10.9638 17.6265 10.6414C17.7868 9.83527 17.6265 8.86792 17.4663 8.22302C17.3061 7.57812 16.9856 7.09448 16.9856 7.09448C16.9856 7.09448 16.6651 7.25568 16.3446 7.57812C16.0241 7.90057 15.5434 8.38422 15.2229 9.02914C15.0626 9.35159 14.9024 9.67407 14.9024 10.1577C14.7422 11.1251 14.9024 11.9312 15.2229 12.5761C15.7036 13.221 16.0241 13.5435 16.0241 13.5435Z" fill="#F5EFDB" fill-opacity="1.000000" fill-rule="nonzero"/>
	<path id="Vector" d="M12.3386 17.4114C12.3386 17.4114 12.8194 17.7338 13.3001 17.895C13.9411 18.2175 14.7422 18.3787 15.5435 18.3787C15.7037 18.3787 16.0242 18.3787 16.1845 18.2175C16.3447 18.2175 16.505 18.0562 16.6652 18.0562C16.9857 17.895 17.3062 17.7338 17.6266 17.5726C17.9471 17.4114 18.1074 17.2501 18.2676 17.2501C18.4279 17.0889 18.4279 17.0889 18.4279 17.0889C18.4279 17.0889 18.1074 16.7664 17.4664 16.444C17.1459 16.2828 16.8254 16.1216 16.5049 15.9604C16.3447 15.9604 16.1845 15.7991 15.864 15.7991C15.7037 15.7991 15.3832 15.7991 15.223 15.7991C14.7423 15.7991 14.4218 15.9604 14.1013 16.1216C13.7808 16.2828 13.4603 16.444 13.1398 16.6053C12.6591 16.9277 12.3386 17.2502 12.3386 17.4114C12.3386 17.4114 12.6591 16.9277 12.9796 16.444C13.1398 16.1216 13.3001 15.7991 13.4603 15.4767C13.6206 15.1542 13.6206 14.6706 13.6206 14.3481C13.6206 14.1869 13.6206 13.8644 13.6206 13.7032C13.6206 13.542 13.6206 13.2195 13.4603 13.0583C13.3001 12.7358 13.3001 12.2522 13.1398 11.9297C12.8193 11.2849 12.4989 10.9624 12.4989 10.9624C12.4989 10.9624 12.3386 11.1237 12.1784 11.2849C12.0181 11.4461 11.8579 11.7685 11.6977 11.9297C11.5374 12.2522 11.3772 12.5746 11.2169 13.0583C11.2169 13.2195 11.0567 13.542 11.0567 13.7032C11.0567 13.8644 11.0567 14.1869 11.0567 14.3481C11.0567 15.3155 11.3772 16.1216 11.6977 16.6053C12.0181 17.0889 12.3386 17.4114 12.3386 17.4114Z" fill="#F5EFDB" fill-opacity="1.000000" fill-rule="nonzero"/>
	<path id="Vector" d="M8.49292 20.96C8.97369 21.4437 9.29419 21.7661 9.29419 21.7661C9.29419 21.7661 9.7749 21.9273 10.4159 22.0886C11.0568 22.2498 11.8581 22.411 12.6593 22.2498C13.4605 22.0886 14.1015 21.6049 14.5822 21.2824C14.7424 21.1212 15.0629 20.96 15.0629 20.7988C15.2232 20.6375 15.2232 20.6375 15.2232 20.6375C15.2232 20.6375 14.7425 20.3151 14.2617 20.1539C13.6207 19.8314 12.8195 19.6702 12.0183 19.8314C11.5376 19.8314 11.2171 19.9926 10.8966 20.3151C10.5761 20.4763 10.2556 20.7988 10.0954 20.96C9.93512 21.1212 9.61462 21.4437 9.61462 21.6049C9.45441 21.7661 9.45441 21.9273 9.45441 21.9273C9.45441 21.9273 9.61462 21.7661 9.61462 21.6049C9.7749 21.4437 9.7749 21.1212 9.93512 20.7988C10.0954 20.4763 10.0954 20.1539 10.2556 19.8314C10.2556 19.509 10.4159 19.0253 10.2556 18.5416C10.0954 17.5743 9.7749 16.9294 9.45441 16.2845C9.13391 15.6396 8.81342 15.3171 8.81342 15.3171C8.81342 15.3171 8.6532 15.4783 8.6532 15.6396C8.49298 15.8008 8.3327 16.1232 8.17249 16.4457C7.85199 17.0906 7.53149 18.0579 7.69171 18.864C7.69171 19.6702 8.01221 20.4763 8.49292 20.96Z" fill="#F5EFDB" fill-opacity="1.000000" fill-rule="nonzero"/>
	<path id="Vector" d="M30.1259 6.77161C30.4464 7.25525 31.0874 8.0614 31.7284 8.38385C32.0489 8.54504 32.3694 8.7063 32.6899 8.86752C33.0103 9.02875 33.1706 9.02872 33.4911 9.02872C33.8116 9.02872 33.9718 9.02872 34.132 9.02872C34.4525 9.02872 34.773 9.02872 34.773 9.02872C34.773 9.02872 34.6128 8.54507 34.4525 7.90021C34.132 7.25531 33.6513 6.61035 33.0103 6.12671C32.6898 5.96552 32.3693 5.80426 32.0489 5.80426C30.9271 5.48181 29.8054 5.80426 29.6452 5.80426C29.8054 5.80426 30.7669 5.48181 31.7284 4.67572C32.0489 4.51447 32.2091 4.19202 32.5296 3.86957C33.0103 3.22467 33.3308 2.25739 33.4911 1.61249C33.6513 0.96759 33.6513 0.483887 33.6513 0.483887C33.6513 0.483887 33.3308 0.483887 32.8501 0.645142C32.6898 0.645142 32.3693 0.806335 32.0489 0.967529C31.7284 1.12878 31.4079 1.29004 31.2476 1.45123C30.9271 1.61249 30.6067 1.93494 30.4464 2.25739C29.9657 3.06348 29.8055 3.86957 29.8055 4.51447C29.8055 5.15936 29.8055 5.64307 29.8055 5.64307C29.8055 5.64307 29.6452 6.2879 30.1259 6.77161Z" fill="#F5EFDB" fill-opacity="1.000000" fill-rule="nonzero"/>
	<path id="Vector" d="M24.6773 7.73914C24.6773 7.73914 24.9978 8.22284 25.3183 8.70648C25.799 9.19016 26.44 9.83505 27.2412 9.99628C27.5617 10.1575 28.0424 10.3187 28.3629 10.3187C28.6834 10.3187 29.0039 10.3187 29.3244 10.3187C29.9654 10.3187 30.2859 10.1575 30.2859 10.1575C30.2859 10.1575 30.1256 9.67383 29.8051 9.19016C29.4846 8.70648 28.8437 8.06158 28.0424 7.57788C27.2412 7.25543 26.44 7.25543 25.799 7.41669C25.1581 7.41669 24.6773 7.73914 24.6773 7.73914C24.6773 7.73914 25.158 7.57794 25.6388 7.09424C26.1195 6.77179 26.7605 6.12689 27.081 5.3208C27.5617 4.51465 27.5617 3.70856 27.722 3.06366C27.722 2.41876 27.5617 1.93506 27.5617 1.93506C27.5617 1.93506 27.081 2.09631 26.44 2.41876C26.1195 2.57996 25.799 2.9024 25.4786 3.22485C25.1581 3.5473 24.8376 3.86975 24.6773 4.35339C24.1966 5.15955 24.1966 6.12689 24.3568 6.77179C24.5171 7.25543 24.6773 7.73914 24.6773 7.73914Z" fill="#F5EFDB" fill-opacity="1.000000" fill-rule="nonzero"/>
	<path id="Vector" d="M20.0302 10.3183C20.0302 10.3183 20.3506 10.6407 20.8314 11.1244C21.3121 11.6081 22.1133 12.0917 22.9146 12.253C23.3953 12.4142 23.7158 12.4142 24.0363 12.4142C24.3568 12.4142 24.6772 12.253 24.9977 12.253C25.6387 12.0917 25.9592 11.9305 25.9592 11.9305C25.9592 11.9305 25.6387 11.4468 25.3182 10.9632C24.8375 10.4795 24.1965 9.99585 23.3953 9.6734C23.0748 9.51218 22.5941 9.51215 22.2736 9.51215C21.9531 9.51215 21.4724 9.6734 21.3121 9.6734C20.5109 9.99585 20.1904 10.3183 20.0302 10.3183C20.0302 10.3183 20.5109 9.99582 20.9916 9.51215C21.1519 9.35092 21.4724 9.02847 21.6326 8.70602C21.7928 8.38361 22.1133 8.0611 22.1133 7.57745C22.4338 6.7713 22.4338 5.80396 22.2736 5.15906C22.1133 4.51416 21.9531 4.03052 21.9531 4.03052C21.9531 4.03052 21.4724 4.19171 20.8314 4.67542C20.5109 4.83661 20.1904 5.15906 20.0302 5.48151C19.7097 5.80396 19.5494 6.28766 19.3892 6.61011C19.0687 7.4162 19.2289 8.38354 19.3892 9.02844C19.8699 9.83456 20.0302 10.3183 20.0302 10.3183Z" fill="#F5EFDB" fill-opacity="1.000000" fill-rule="nonzero"/>
	<path id="Vector" d="M45.1885 5.96521C45.3488 6.61011 45.509 7.4162 45.9897 8.22235C46.15 8.54477 46.4705 8.70599 46.6307 9.02844C46.791 9.18967 47.1114 9.35092 47.2717 9.51215C47.4319 9.67337 47.7524 9.83456 47.9127 9.83456C48.2332 9.99579 48.5536 10.157 48.5536 10.157C48.5536 10.157 48.7139 9.67334 48.7139 9.02844C48.7139 8.38354 48.5536 7.57745 48.0729 6.77136C47.9126 6.44891 47.5922 6.28766 47.4319 5.96521C47.2717 5.80402 46.9512 5.64282 46.7909 5.48157C46.6307 5.32037 46.3102 5.32031 46.15 5.15912C45.6693 4.99786 45.509 4.99786 45.3488 4.99786C45.3488 4.99786 45.6693 4.99786 46.15 4.99786C46.3102 4.99786 46.6307 4.99786 46.9512 4.99786C47.2717 4.99786 47.4319 4.99792 47.7524 4.83667C48.0729 4.67548 48.3934 4.67548 48.7139 4.51422C49.5151 4.03058 50.156 3.54688 50.4765 2.90204C50.797 2.41833 51.1175 1.93469 51.1175 1.93469C51.1175 1.93469 50.797 1.77344 50.3163 1.77344C49.9958 1.77344 49.8356 1.77344 49.5151 1.77344C49.1946 1.77344 48.8741 1.77344 48.5536 1.93469C48.2331 1.93469 47.9127 2.09589 47.4319 2.25714C46.6307 2.74078 46.15 3.38568 45.8295 4.03058C45.509 4.67548 45.3488 5.15912 45.3488 5.15912C45.3488 5.15912 45.0283 5.32031 45.1885 5.96521Z" fill="#F5EFDB" fill-opacity="1.000000" fill-rule="nonzero"/>
	<path id="Vector" d="M41.1826 7.5777C41.5031 7.90015 41.8236 8.0614 42.1441 8.38385C42.4646 8.54507 42.7851 8.70633 43.1056 8.86755C43.5863 9.02878 44.067 9.18997 44.067 9.18997C44.067 9.18997 44.067 8.70633 44.067 8.0614C43.9068 7.4165 43.7465 6.61041 43.1056 5.96552C42.7851 5.64307 42.4646 5.48181 42.1441 5.15936C41.8236 4.99817 41.5031 4.83691 41.1826 4.67572C40.5416 4.51447 40.0609 4.51447 40.0609 4.51447C40.0609 4.51447 40.5416 4.51447 41.1826 4.35327C41.5031 4.35327 41.8236 4.19208 42.1441 4.03082C42.4646 3.86963 42.9453 3.70837 43.2658 3.38593C43.9068 2.90222 44.3875 2.09613 44.708 1.61249C45.0285 0.96759 45.1887 0.483887 45.1887 0.483887C45.1887 0.483887 44.708 0.483887 43.9068 0.483887C43.1056 0.483887 42.3043 0.806335 41.5031 1.28998C40.7019 1.93488 40.3814 2.57983 40.2212 3.22473C40.0609 3.86963 39.9007 4.35327 39.9007 4.35327C39.9007 4.35327 39.9007 4.83691 40.0609 5.48181C40.2212 6.12671 40.5416 6.9328 41.1826 7.5777Z" fill="#F5EFDB" fill-opacity="1.000000" fill-rule="nonzero"/>
	<path id="Vector" d="M37.8173 5.48163C37.1763 4.99799 36.3751 4.67554 35.7341 4.67554C35.0931 4.67554 34.6124 4.67554 34.6124 4.67554C34.6124 4.67554 35.0931 4.67548 35.7341 4.35303C36.3751 4.19183 37.016 3.86938 37.657 3.22449C38.298 2.57959 38.6185 1.77344 38.9389 1.12854C39.0992 0.483643 39.2594 0 39.2594 0C39.2594 0 38.7787 -6.10352e-05 37.9775 0.161194C37.657 0.161194 37.1763 0.322449 36.8558 0.644897C36.5353 0.806091 36.0546 1.12854 35.7341 1.45099C35.0931 2.09589 34.7726 2.90204 34.7726 3.54694C34.6124 4.19183 34.6124 4.67554 34.6124 4.67554C34.6124 4.67554 34.7726 5.15918 34.9329 5.80408C35.2534 6.44897 35.5739 7.09387 36.2148 7.73877C36.5353 8.06122 36.8558 8.22241 37.1763 8.38367C37.4967 8.54489 37.8172 8.54492 38.1377 8.70615C38.7787 8.86737 39.0992 8.86737 39.0992 8.86737C39.0992 8.86737 39.0992 8.38367 38.9389 7.73877C38.9389 6.93268 38.4582 6.12653 37.8173 5.48163Z" fill="#F5EFDB" fill-opacity="1.000000" fill-rule="nonzero"/>
	<path id="Vector" d="M59.6105 10.6406C59.6105 10.6406 59.4503 11.1242 59.1298 11.7691C58.9695 12.414 58.8093 13.2202 58.8093 14.0263C58.8093 14.3487 58.9695 14.6712 59.1298 14.9936C59.29 15.4773 59.6105 15.9609 59.931 16.2834C60.0912 16.4446 60.0912 16.6059 60.2515 16.6059C60.4117 16.7671 60.4117 16.7671 60.4117 16.7671C60.4117 16.7671 60.7322 16.4446 61.0527 15.7997C61.3732 15.1548 61.5334 14.3487 61.5334 13.5426C61.5334 13.2202 61.3732 12.8977 61.2129 12.5753C60.572 11.4467 59.6105 10.6406 59.6105 10.6406C59.7708 10.6406 60.572 11.2855 61.8539 11.6079C62.1744 11.6079 62.4949 11.7691 62.9756 11.7691C63.7768 11.7691 64.7382 11.4467 65.219 11.1243C65.8599 10.8018 66.1804 10.4794 66.1804 10.4794C66.1804 10.4794 66.1804 10.4794 66.0202 10.3181C65.8599 10.1569 65.6997 10.1569 65.5395 9.99567C65.0588 9.67322 64.578 9.35077 63.9371 9.18954C63.6166 9.02832 63.1358 9.02832 62.8153 9.02832C61.8539 9.02832 61.0527 9.51199 60.572 9.83444C59.931 10.3181 59.6105 10.6406 59.6105 10.6406Z" fill="#F5EFDB" fill-opacity="1.000000" fill-rule="nonzero"/>
	<path id="Vector" d="M55.1238 7.90002C55.1238 7.90002 54.9635 8.38367 54.8032 9.02859C54.643 9.67349 54.643 10.4797 54.9635 11.2858C55.1238 11.7695 55.284 12.0919 55.4442 12.4143C55.6045 12.5756 55.6045 12.7368 55.7647 12.898C55.925 13.0593 55.925 13.2205 56.0852 13.2205C56.4057 13.7041 56.8864 13.8654 56.8864 13.8654C56.8864 13.8654 57.0467 13.3817 57.3672 12.7368C57.5274 12.0919 57.6877 11.2858 57.5274 10.4797C57.3672 9.99597 57.2069 9.67352 57.0467 9.35107C56.8864 9.02863 56.5659 8.70618 56.4057 8.54495C55.6045 8.22247 55.1238 8.06128 55.1238 7.90002C55.1238 7.90002 55.6045 8.22247 56.2455 8.38373C56.566 8.38373 56.8864 8.54495 57.3672 8.54495C57.6877 8.54495 58.1684 8.54495 58.6491 8.54495C59.4503 8.38373 60.2516 7.90002 60.7323 7.57758C61.213 7.09393 61.5335 6.77148 61.5335 6.77148C61.5335 6.77148 61.0528 6.44904 60.4118 6.28778C60.2515 6.28778 60.0913 6.12659 59.9311 6.12659C59.7708 6.12659 59.4503 5.96533 59.2901 5.96533C58.8094 5.96533 58.4889 5.96533 58.0081 5.96533C57.0467 6.12659 56.4057 6.61023 55.925 7.09393C55.284 7.57758 55.1238 7.90002 55.1238 7.90002Z" fill="#F5EFDB" fill-opacity="1.000000" fill-rule="nonzero"/>
	<path id="Vector" d="M50.1564 5.96539C50.1564 5.96539 49.9962 6.4491 49.9962 7.09399C49.9962 7.73889 49.9962 8.54498 50.4769 9.3511C50.6371 9.67355 50.7974 9.996 51.1179 10.3185C51.2781 10.6409 51.5986 10.8021 51.7589 10.9633C52.2396 11.2858 52.5601 11.447 52.5601 11.447C52.5601 11.447 52.7203 10.9633 52.8806 10.3185C53.0408 9.67355 53.0408 8.86743 52.7203 8.06134C52.5601 7.73889 52.3998 7.41644 52.0793 7.09399C51.7589 6.77155 51.5986 6.61029 51.2781 6.4491C50.7974 6.12665 50.3167 5.96539 50.1564 5.96539C50.1564 5.96539 50.6371 6.12665 51.2781 6.12665C51.5986 6.12665 51.9191 6.12665 52.3998 6.12665C52.7203 6.12665 53.201 5.96539 53.5215 5.96539C54.3228 5.64294 54.9637 5.1593 55.4444 4.6756C55.9252 4.19196 56.0854 3.70825 56.0854 3.70825C56.0854 3.70825 55.6047 3.547 54.9637 3.3858C54.6432 3.22455 54.1625 3.22461 53.842 3.22461C53.3613 3.22461 53.0408 3.22455 52.5601 3.3858C51.7589 3.70825 51.1179 4.35315 50.6371 4.83685C50.3167 5.48175 50.1564 5.96539 50.1564 5.96539Z" fill="#F5EFDB" fill-opacity="1.000000" fill-rule="nonzero"/>
	<path id="Vector" d="M71.1484 21.9268C70.5074 22.088 70.0267 22.2492 70.0267 22.2492C70.0267 22.2492 69.7062 22.5717 69.2255 23.0554C69.0652 23.2166 68.7448 23.539 68.5845 23.8615C68.4243 24.1839 68.1038 24.5064 68.1038 24.9901C67.9435 25.3125 67.9435 25.6349 67.9435 25.9574C67.9435 26.6023 67.9435 27.086 68.1038 27.4084C68.1038 27.5697 68.264 27.7309 68.264 27.8921C68.264 28.0533 68.264 28.0533 68.264 28.0533C68.264 28.0533 68.7448 27.8921 69.2255 27.4084C69.546 27.2472 69.7062 26.9248 70.0267 26.6023C70.187 26.2799 70.5074 25.9574 70.6677 25.4737C70.8279 25.1513 70.8279 24.8288 70.8279 24.5064C70.8279 23.8615 70.6677 23.3778 70.5074 22.8941C70.3472 22.4105 70.187 22.2492 70.187 22.088C70.187 22.088 70.3472 22.4104 70.6677 22.7329C70.9882 23.0553 71.3087 23.539 71.7894 23.8615C72.1099 24.0227 72.4304 24.3451 72.7509 24.3451C73.2316 24.5063 73.5521 24.6676 74.0328 24.6676C74.5135 24.6676 74.834 24.6676 75.1545 24.6676C75.7955 24.6676 76.2762 24.5064 76.2762 24.5064C76.2762 24.5064 76.2762 24.5063 76.116 24.3451C76.116 24.1839 75.9557 24.0227 75.7955 23.8615C75.475 23.3778 75.1545 22.8941 74.6738 22.4105C74.3533 22.2492 74.0328 21.9268 73.7123 21.7656C73.2316 21.6044 72.9111 21.4431 72.4304 21.4431C71.9496 21.7656 71.4689 21.7655 71.1484 21.9268Z" fill="#F5EFDB" fill-opacity="1.000000" fill-rule="nonzero"/>
	<path id="Vector" d="M68.264 17.4126C67.6231 17.5738 67.3026 17.8962 67.3026 17.8962C67.3026 17.8962 66.9821 18.2187 66.5013 18.7024C66.1809 19.186 65.7001 19.9922 65.5399 20.7983C65.5399 21.282 65.5399 21.6044 65.5399 21.9268C65.5399 22.2493 65.7001 22.5717 65.7001 22.8942C65.8604 23.3779 66.0206 23.8616 66.0206 23.8616C66.0206 23.8616 66.3411 23.5391 66.8218 23.0555C67.3026 22.5718 67.7833 21.9269 67.9436 20.9595C68.1038 20.1534 67.9435 19.3473 67.623 18.7024C67.4628 18.3799 67.3026 18.2187 67.3026 18.0575C67.1423 17.8962 67.1423 17.735 67.1423 17.735C67.3026 17.8963 68.264 19.186 70.0267 19.6697C70.8279 19.8309 71.7894 19.8309 72.4304 19.6697C73.0714 19.5085 73.5521 19.3473 73.5521 19.3473C73.5521 19.3473 73.2316 18.8636 72.7509 18.3799C72.4304 18.0575 72.2701 17.8962 71.7894 17.5738C71.4689 17.4126 70.9882 17.0901 70.5074 17.0901C69.7062 16.9289 68.7448 17.0901 68.264 17.4126Z" fill="#F5EFDB" fill-opacity="1.000000" fill-rule="nonzero"/>
	<path id="Vector" d="M64.5781 13.3821C63.9371 13.7045 63.6166 14.027 63.6166 14.027C63.6166 14.027 63.2961 14.3494 62.9756 14.9943C62.8154 15.3168 62.6552 15.6392 62.4949 15.9617C62.4949 16.1229 62.3347 16.2841 62.3347 16.6066C62.3347 16.7678 62.3347 17.0902 62.3347 17.2514C62.3347 17.7351 62.3347 18.0576 62.4949 18.38C62.6552 18.7025 62.6552 19.0249 62.8154 19.3474C62.9756 19.6698 63.1359 19.8311 63.1359 19.9923C63.2961 20.1535 63.2961 20.1535 63.2961 20.1535C63.2961 20.1535 63.6166 19.8311 64.0973 19.3474C64.4178 18.8637 64.8986 18.0576 64.8986 17.2514C64.8986 17.0902 64.8986 16.7678 64.8986 16.6066C64.8986 16.4453 64.7383 16.2841 64.7383 16.1229C64.5781 15.8005 64.4178 15.478 64.2576 15.1555C63.9371 14.6719 63.6166 14.3494 63.4564 14.1882C63.4564 14.1882 63.9371 14.5107 64.4178 14.8331C64.7383 14.9943 65.0588 15.1556 65.3793 15.3168C65.5395 15.3168 65.6998 15.478 66.0203 15.478C66.1805 15.478 66.3408 15.6392 66.6612 15.6392C67.4625 15.8004 68.4239 15.478 69.0649 15.3168C69.7059 15.1556 70.0263 14.8331 70.0263 14.8331C70.0263 14.8331 69.8661 14.6719 69.8661 14.5107C69.7059 14.3495 69.5456 14.1882 69.2251 13.8658C68.9046 13.7045 68.5842 13.3821 68.2637 13.2209C67.9432 13.0596 67.4625 12.8984 66.9817 12.8984C66.8215 12.8984 66.501 12.8984 66.3408 12.8984C66.1805 12.8984 65.86 12.8984 65.6998 13.0596C65.219 13.0596 64.8986 13.2209 64.5781 13.3821Z" fill="#F5EFDB" fill-opacity="1.000000" fill-rule="nonzero"/>
	<path id="Vector" d="M77.077 32.8904C76.436 32.2455 75.4745 32.0842 74.8336 32.0842C74.1926 32.0842 73.7119 32.0842 73.7119 32.0842C73.7119 32.0842 73.2311 32.2454 72.7504 32.5679C72.1094 32.8903 71.4684 33.374 70.9877 34.0189C70.507 34.6638 70.3467 35.4699 70.1865 35.9536C70.1865 36.1148 70.1865 36.276 70.1865 36.276C70.1865 36.4373 70.1865 36.4372 70.1865 36.5984C70.1865 36.7597 70.1865 36.9209 70.1865 36.9209C70.1865 36.9209 70.6672 36.9209 71.3082 36.5984C71.6287 36.4372 71.9492 36.276 72.2697 36.1148C72.5901 35.9536 72.9106 35.6311 73.2311 35.3087C73.5516 34.9862 73.7119 34.6638 73.7119 34.1801C73.8721 33.8577 73.8721 33.5352 73.8721 33.2128C73.8721 32.8903 73.8721 32.5679 73.8721 32.4066C73.8721 32.2454 73.8721 32.0842 73.8721 32.0842C73.8721 32.0842 73.8721 32.2454 74.0323 32.4066C74.0323 32.5679 74.1926 32.8903 74.3528 33.2128C74.5131 33.5352 74.6733 33.8577 74.8336 34.1801C74.9938 34.5026 75.3143 34.825 75.6348 35.1475C75.9553 35.4699 76.2758 35.6311 76.7565 35.7923C77.077 35.9536 77.5577 36.1148 77.8782 36.1148C78.5192 36.276 78.9999 36.276 78.9999 36.276C78.9999 36.276 78.9999 36.1148 78.9999 35.9536C78.9999 35.7924 78.9999 35.6311 78.9999 35.6311C78.9999 35.4699 78.8397 35.3087 78.8397 35.1475C78.1987 34.3413 77.8782 33.5352 77.077 32.8904Z" fill="#F5EFDB" fill-opacity="1.000000" fill-rule="nonzero"/>
	<path id="Vector" d="M73.3914 26.7622C72.7504 26.7622 72.2697 26.9234 72.2697 26.9234C72.2697 26.9234 71.7889 27.0847 71.3082 27.5683C70.8275 27.8908 70.1865 28.5357 69.866 29.3418C69.7058 29.6642 69.5456 30.1479 69.5456 30.4704C69.5456 30.7928 69.3853 31.1153 69.3853 31.4377C69.3853 31.599 69.3853 31.7602 69.3853 31.7602C69.3853 31.9214 69.3853 31.9214 69.3853 32.0826C69.3853 32.2439 69.3853 32.4051 69.3853 32.4051C69.3853 32.4051 69.866 32.2439 70.3468 31.9214C70.6673 31.7602 70.9877 31.599 71.3082 31.2765C71.6287 30.9541 71.7889 30.6316 72.1094 30.3092C72.2697 29.9867 72.4299 29.503 72.4299 29.1806C72.4299 28.8581 72.4299 28.3745 72.4299 28.052C72.4299 27.4071 72.2697 26.9234 72.1094 26.9234C72.1094 26.9234 72.2697 27.4071 72.5902 28.052C72.7504 28.3745 72.9106 28.6969 73.2311 28.8582C73.5516 29.1806 73.7119 29.5031 74.1926 29.6643C74.5131 29.8255 74.9938 30.1479 75.3143 30.1479C75.6348 30.3091 76.1155 30.3092 76.436 30.3092C77.077 30.3092 77.5577 30.3092 77.5577 30.3092C77.5577 30.3092 77.5577 30.1479 77.3975 29.9867C77.3975 29.8255 77.3975 29.8255 77.2372 29.6643C77.2372 29.5031 77.077 29.3418 77.077 29.1806C76.9167 28.8581 76.7565 28.5357 76.436 28.2133C76.1155 27.8908 75.795 27.5684 75.4746 27.4071C74.9938 26.9235 74.1926 26.7622 73.3914 26.7622Z" fill="#F5EFDB" fill-opacity="1.000000" fill-rule="nonzero"/>
	<path id="3" d="M40.3194 38.6945C42.3978 38.8138 44.0308 39.5447 45.2185 40.8873C46.4062 42.2299 47 43.8112 47 45.6312C47 47.2721 46.6288 48.7341 45.8866 50.017C45.174 51.2701 44.1645 52.2546 42.858 52.9707C41.5516 53.6569 40.0522 54 38.3598 54C35.5391 54 33.1044 52.8812 31.0557 50.6435L31.0111 50.554C31.0111 50.4347 31.0705 50.3452 31.1893 50.2855C31.3378 50.196 31.4417 50.196 31.501 50.2855C32.184 50.9717 33.0005 51.4938 33.9506 51.8518C34.9304 52.2099 35.8806 52.3889 36.801 52.3889C38.82 52.3889 40.2897 51.8071 41.2101 50.6435C42.1603 49.4501 42.6354 47.8987 42.6354 45.9892C42.6354 41.4841 40.2006 39.2315 35.3312 39.2315C35.2125 39.2315 35.1382 39.142 35.1086 38.963C35.1086 38.7541 35.1828 38.6497 35.3312 38.6497C37.7065 38.6497 39.3693 38.1276 40.3194 37.0833C41.2993 36.0391 41.7891 34.5623 41.7891 32.6528C41.7891 30.7732 41.3883 29.3858 40.5866 28.4908C39.785 27.5957 38.6715 27.1482 37.2463 27.1482C36.0884 27.1482 34.975 27.4465 33.9061 28.0432C32.8372 28.6101 32.0504 29.4604 31.5456 30.5941C31.5456 30.624 31.501 30.6389 31.412 30.6389C31.3229 30.6389 31.219 30.609 31.1002 30.5494C31.0111 30.4897 30.9814 30.4449 31.0111 30.4151C31.6644 28.7444 32.7036 27.4316 34.1287 26.4768C35.554 25.4923 37.187 25 39.0278 25C41.0765 25 42.7393 25.5818 44.016 26.7454C45.3224 27.909 45.9756 29.4007 45.9756 31.2207C45.9756 32.8318 45.4561 34.3235 44.4169 35.696C43.4073 37.0684 42.0415 38.0679 40.3194 38.6945Z" fill="#AAAAAA" fill-opacity="1.000000" fill-rule="nonzero"/>
</svg>
