<svg width="78.999969" height="79.000458" viewBox="0 0 79 79.0005" fill="none" xmlns="http://www.w3.org/2000/svg" xmlns:xlink="http://www.w3.org/1999/xlink">
	<desc>
			Created with Pixso.
	</desc>
	<defs/>
	<path id="Vector" d="M12.1935 58.3301C12.0217 58.1549 11.85 57.9797 11.85 57.8046C11.6783 57.4542 11.5065 57.2791 11.5065 57.2791C11.5065 56.7536 11.6782 56.2281 11.6782 55.7026C12.1935 55.7026 13.0522 55.5274 13.3956 54.4764C13.5674 53.9509 13.5674 53.2503 13.5674 52.5496C13.5674 52.1993 13.5674 51.8489 13.3956 51.6738C13.3956 51.3235 13.3956 51.1483 13.3956 50.9731C12.8804 51.3235 10.9913 52.7248 10.6478 53.6006C10.476 54.1261 10.476 54.4764 10.6478 54.8268C10.8195 55.1771 11.163 55.3523 11.3348 55.5274C11.163 55.7026 11.163 56.0529 10.9913 56.4033C10.9913 56.4033 10.8195 56.2281 10.6478 55.8777C10.476 55.5274 10.3044 55.1771 10.1326 54.8268C9.96088 54.4764 9.78912 54.1261 9.61737 53.7758C9.61737 53.6006 9.44562 53.4254 9.44562 53.4254L9.44562 53.2503L8.93042 52.0241C8.93042 51.6738 9.2739 50.9731 9.44562 50.4476C9.96085 50.4476 10.8195 50.4476 11.3348 49.5718C11.5065 49.2215 11.6782 48.5208 11.6782 47.8201C11.6782 47.4698 11.6782 47.1195 11.6782 46.7692C11.6782 46.4188 11.6782 46.2437 11.6782 46.0685C11.163 46.2437 9.10214 47.2946 8.58694 48.1705C8.41519 48.3456 8.41522 48.5208 8.41522 48.696C8.24347 49.3966 8.75867 49.9221 8.93042 50.0973C8.75867 50.2725 8.58694 50.6228 8.41522 50.7979C8.41522 50.7979 8.41519 50.6228 8.24347 50.4476C8.24347 50.2725 8.07172 50.0973 8.07172 49.7469C7.89996 49.2215 7.72824 48.696 7.72824 48.696C7.72824 48.696 7.72827 48.5208 7.55652 48.3456C7.55652 48.1705 7.38477 47.9953 7.38477 47.9953L7.04129 46.7692C7.21304 46.4188 7.55652 45.7182 7.72824 45.3678C8.07172 45.543 9.10214 45.543 9.78909 44.6672C10.1326 44.3168 10.3043 43.6162 10.4761 42.9155C10.6478 42.2148 10.8195 41.6894 10.8195 41.339C10.3043 41.5142 8.07172 42.2148 7.38477 42.9155C6.69781 43.7913 7.21304 44.6672 7.38477 45.0175C7.21304 45.1927 7.04129 45.3678 6.86954 45.7181C6.86954 45.7181 6.86957 45.543 6.69781 45.1927C6.69781 44.8423 6.52606 44.492 6.52606 43.9665C6.52606 43.6161 6.35434 43.0907 6.35434 42.7404C6.35434 42.39 6.35434 42.2148 6.35434 42.2148C6.35434 42.2148 6.35434 41.8645 6.35434 41.5142C6.35434 41.339 6.35434 41.1638 6.35434 41.1638C6.35434 40.9887 6.35434 40.9887 6.35434 40.9887C6.52606 40.6384 7.04129 40.1129 7.21301 39.7625C7.55649 39.9377 8.58694 40.1129 9.2739 39.4122C9.61737 39.0619 9.96088 38.5364 10.1326 37.8357C10.4761 37.135 10.6478 36.6096 10.6478 36.2592C9.96085 36.2592 7.72824 36.6096 7.04129 37.3102C6.86957 37.4854 6.69781 37.6606 6.69781 37.8357C6.35434 38.5364 6.69781 39.0619 6.86954 39.4122C6.69781 39.5874 6.52609 39.7625 6.18262 39.9377C6.18262 39.9377 6.18262 39.7625 6.18262 39.5874C6.18262 39.4122 6.18262 39.0619 6.18262 38.8867C6.18262 38.3612 6.18262 37.8357 6.18262 37.8357L6.18262 36.9599C6.18262 36.9599 6.18262 36.6096 6.18262 36.2592C6.18262 35.9089 6.18262 35.5586 6.18262 35.5586C6.35434 35.2083 6.86954 34.6827 7.21301 34.5076C7.55649 34.6827 8.41522 35.2083 9.2739 34.5076C9.61737 34.1573 10.1326 33.6317 10.4761 33.1063C10.8195 32.5807 11.163 32.0553 11.163 31.7049C10.4761 31.7049 8.24347 31.7049 7.38477 32.2304C6.86957 32.5807 6.69781 32.9311 6.69781 33.2814C6.69781 33.6317 6.69781 33.9821 6.86954 34.1572C6.69781 34.3324 6.35434 34.5076 6.18262 34.6827C6.18262 34.6827 6.18262 34.5076 6.18262 34.1572C6.18262 33.8069 6.35434 33.4566 6.35434 32.9311C6.35434 32.4056 6.52606 32.0553 6.52606 31.7049C6.52606 31.3546 6.69781 31.1794 6.69781 31.1794C6.69781 31.1794 6.69781 31.1794 6.69781 31.0043C6.69781 30.8291 6.69781 30.6539 6.69781 30.6539C6.69781 30.3036 6.86954 29.9533 6.86954 29.9533C7.21301 29.6029 7.72824 29.2526 8.07172 29.0775C8.41519 29.4278 9.10217 29.9533 10.1326 29.4278C10.3044 29.2526 10.6478 29.0775 10.8195 28.9023C10.9913 28.7271 11.3347 28.3768 11.5065 28.2016C12.0217 27.6761 12.3652 27.1506 12.5369 26.9755C12.1935 26.9755 11.5065 26.8003 10.8195 26.6252C10.1326 26.6252 9.2739 26.6251 8.7587 26.8003C8.58694 26.9755 8.41519 26.9755 8.24347 27.1506C8.07172 27.3258 7.89999 27.6761 7.89999 28.0265C7.89999 28.3768 7.89999 28.5519 7.89999 28.7271C7.72824 28.9023 7.38477 28.9023 7.04129 29.0775C7.04129 29.0775 7.21304 28.5519 7.38477 28.0265C7.38477 27.8513 7.55652 27.5009 7.55652 27.3258C7.55652 27.1506 7.72824 26.9755 7.72824 26.9755L8.07172 26.0996C8.07172 26.0996 8.07172 26.0996 8.07172 25.9245C8.07172 25.9245 8.07172 25.9245 8.07172 25.7493C8.07172 25.7493 8.07172 25.5741 8.24347 25.399C8.41519 25.0486 8.41522 24.8735 8.41522 24.8735C8.7587 24.5232 9.44562 24.348 9.78909 24.1728C10.1326 24.5232 10.8195 25.2238 11.85 24.8735C12.7087 24.5232 14.0826 23.1218 14.5978 22.7715C14.0826 22.5963 11.85 21.7205 10.8195 22.0708C10.3043 22.246 9.96085 22.5963 9.78909 22.9467C9.61737 23.297 9.61737 23.6473 9.61737 23.8225C9.44565 23.8225 9.10217 23.9977 8.7587 23.9977C8.7587 23.9977 8.93042 23.8225 8.93042 23.4722C9.10214 23.1218 9.2739 22.7715 9.44562 22.4212C9.61737 22.0708 9.78912 21.7205 9.96085 21.3702C10.1326 21.0198 10.1326 20.8447 10.1326 20.8447L10.8195 19.7937C11.163 19.6185 11.85 19.4434 12.3652 19.2682C12.5369 19.6185 13.2239 20.3192 14.2543 20.3192C14.7695 20.3192 15.2847 19.9689 15.8 19.6185C16.1434 19.4434 16.3152 19.2682 16.6587 19.093C16.8304 18.9178 17.1739 18.7427 17.1739 18.7427C16.6587 18.3924 14.5978 17.3414 13.5674 17.3414C13.3956 17.3414 13.2239 17.3414 13.0522 17.5165C12.3652 17.8669 12.1935 18.5675 12.1935 18.7427C12.0217 18.7427 11.6783 18.7427 11.3348 18.7427C11.3348 18.7427 11.3347 18.5675 11.5065 18.3924C11.6782 18.2172 11.6783 18.0421 11.85 17.8669C12.1935 17.5165 12.3652 16.9911 12.3652 16.9911C12.3652 16.9911 12.5369 16.8159 12.5369 16.6407C12.7087 16.4655 12.7087 16.2904 12.7087 16.2904L13.0522 15.7649L13.5674 15.2394C13.9109 15.0642 14.5978 15.0642 15.113 15.0642C15.2848 15.4146 15.8 16.2904 16.8304 16.2904C17.3456 16.2904 18.0326 16.1152 18.5478 15.7649C19.2347 15.5897 19.75 15.2394 19.9217 15.0642C19.4065 14.7139 17.6891 13.3126 16.6587 13.3126C16.1434 13.3126 15.8 13.4877 15.4565 13.8381C15.2848 14.1884 15.113 14.3636 15.113 14.7139C14.9413 14.7139 14.5978 14.7139 14.2543 14.7139C14.2543 14.7139 14.4261 14.5387 14.5978 14.3636C14.7695 14.1884 15.113 13.8381 15.4565 13.4877C15.6282 13.3126 15.8 13.1374 15.9717 12.9622C16.1434 12.7871 16.3152 12.6119 16.3152 12.6119C16.4869 12.4367 16.6587 12.2616 16.6587 12.2616C16.6587 12.2616 16.8304 12.0864 17.1739 11.7361C17.3456 11.5609 17.6891 11.3857 17.6891 11.3857C18.2043 11.3857 18.7195 11.3857 19.2347 11.3857C19.2347 11.9113 19.5782 12.7871 20.6086 12.9622C20.7804 12.9622 21.1239 12.9622 21.4673 12.9622C21.8108 12.9622 22.1543 12.7871 22.326 12.7871C22.6695 12.7871 23.013 12.6119 23.3565 12.6119C23.7 12.6119 23.8717 12.4367 24.0434 12.4367C23.7 11.9113 21.9826 10.3347 21.1239 10.1596C20.9521 10.1596 20.7804 10.1596 20.4369 10.1596C20.2652 10.1596 20.0934 10.1596 19.9217 10.3347C19.75 10.3347 19.75 10.5099 19.5782 10.6851C19.4065 10.8603 19.2347 11.0354 19.2347 11.2106C19.063 11.2106 18.7195 11.0354 18.376 11.0354C18.376 11.0354 18.7195 10.6851 19.2347 10.3347C19.5782 9.98444 20.0934 9.63409 20.0934 9.63409L20.7804 9.10861C20.7804 9.10861 20.7804 9.10858 20.9521 8.93344C20.9521 8.93344 21.1239 8.93344 21.1239 8.75827C21.4673 8.5831 21.6391 8.40796 21.6391 8.40796C21.9826 8.40796 22.6695 8.5831 23.1847 8.5831C23.1847 9.10861 23.3564 9.98444 24.3869 10.3347C24.9021 10.5099 25.5891 10.5099 26.276 10.5099C26.6195 10.5099 26.963 10.5099 27.1347 10.3347C27.4782 10.3347 27.6499 10.3347 27.8217 10.3347C27.4782 9.80927 26.1043 7.88245 25.2456 7.5321C24.7304 7.35693 24.3869 7.35693 24.0434 7.5321C23.7 7.70728 23.5282 8.05762 23.3565 8.23279C23.1848 8.05762 22.8412 8.05762 22.4978 7.88245C22.4978 7.88245 22.6695 7.70728 23.013 7.5321C23.3565 7.35693 23.7 7.18176 24.0434 7.00659C24.2151 6.83142 26.1043 5.95563 27.4782 5.07977C27.8217 5.43011 28.5086 5.95563 29.3673 5.60529C30.226 5.25494 31.5999 3.32812 31.9434 2.80261C31.4282 2.6275 29.0239 2.27716 28.1652 2.6275C26.963 3.15295 27.1347 4.20398 27.1347 4.55432C26.4478 4.9046 25.7608 5.07977 25.4173 5.25494C25.0739 5.43011 23.3565 5.95563 23.3565 5.95563C23.3565 5.60529 23.5282 5.25494 23.5282 5.07977C23.7 5.07977 24.0434 5.07977 24.3869 4.90466C24.7304 4.72949 25.0739 4.37915 25.2456 3.85364C25.4173 3.32812 25.4173 2.45233 25.4173 1.75165C25.4173 1.05096 25.2456 0.175171 25.2456 0C25.0739 0.175171 24.9021 0.350342 24.5587 0.525513C24.2152 0.700684 24.0434 1.05103 23.7 1.22614C23.013 1.75165 22.4978 2.45233 22.326 2.97784C21.9825 4.02881 22.6695 4.72949 23.013 4.90466C23.013 5.07977 22.8412 5.43011 22.6695 5.60529C22.4978 5.95563 22.4978 6.1308 22.326 6.30597C22.326 6.30597 22.1543 6.30597 21.9826 6.48114C21.8108 6.65631 21.4673 6.83142 21.2956 7.00659C20.7804 7.35693 20.2652 7.70728 20.2652 7.70728C20.2652 7.70728 20.2652 7.70728 20.0934 7.88245C19.9217 7.88245 19.9217 8.05762 19.7499 8.23279C19.4065 8.40796 19.2347 8.5831 19.2347 8.5831L18.8913 8.75827C18.8913 8.5831 18.8913 8.40796 18.8913 8.23279C18.8913 8.05762 18.8913 8.05762 18.8913 7.88245C19.063 7.88245 19.4065 7.70728 19.7499 7.5321C20.0934 7.35693 20.4369 7.00659 20.4369 6.48114C20.6087 5.43011 19.9217 3.15295 19.7499 2.6275C19.5782 2.80267 19.4065 2.97784 19.2347 3.15295C19.063 3.5033 18.7195 3.67847 18.376 4.02881C17.8608 4.72949 17.3456 5.43011 17.3456 5.95563L17.3456 6.1308C17.3456 7.18176 18.0326 7.5321 18.376 7.70728C18.2043 8.23279 18.2043 8.93344 18.0326 9.28378C18.0326 9.28378 17.8608 9.45892 17.6891 9.63409C17.5174 9.80927 17.1739 10.1596 16.8304 10.3347C16.4869 10.5099 16.3152 10.8603 15.9717 11.0354C15.8 11.2106 15.6282 11.3857 15.6282 11.3857C15.6282 11.3857 15.2847 11.7361 14.9413 11.9113C14.7695 12.0864 14.5978 12.2616 14.5978 12.2616C14.4261 12.4367 14.4261 12.4367 14.4261 12.4367C14.4261 12.0864 14.2543 11.7361 14.2543 11.5609C14.4261 11.5609 14.7695 11.3857 15.113 11.0354C15.4565 10.8603 15.6282 10.3347 15.6282 9.80927C15.6282 8.75827 14.5978 6.65631 14.4261 6.1308C14.2543 6.48114 13.7391 7.00659 13.3956 7.88245C13.0522 8.5831 12.7087 9.45892 12.7087 9.98444C12.7087 11.2106 13.5674 11.5609 14.0826 11.5609C14.0826 12.0864 14.0826 12.7871 13.9109 13.1374C13.9109 13.1374 13.7391 13.3126 13.5674 13.4877C13.3956 13.6629 13.2239 13.8381 13.0522 14.1884C12.8804 14.3636 12.7087 14.7139 12.5369 14.8891C12.3652 15.0642 12.3652 15.2394 12.3652 15.2394C12.3652 15.2394 12.1935 15.5897 11.85 15.7649C11.6783 15.94 11.6782 16.1152 11.5065 16.1152C11.5065 16.2904 11.3348 16.2904 11.3348 16.2904L11.163 16.6407C11.163 16.4655 10.9913 16.2904 10.9913 16.1152C10.9913 15.9401 10.9913 15.94 10.8195 15.7649C10.9913 15.5897 11.3347 15.4146 11.5065 15.2394C11.6782 14.8891 11.85 14.5387 11.85 14.0132C11.6783 12.9622 10.4761 11.0354 10.1326 10.5099C9.96088 10.8603 9.61737 11.5609 9.2739 12.2616C8.93042 13.1374 8.75867 13.8381 8.93042 14.5387L8.93042 14.7139C9.10214 15.7649 9.96085 15.94 10.4761 15.94C10.4761 16.4655 10.6478 17.1662 10.6478 17.5165C10.6478 17.5165 10.3043 18.2172 9.78909 18.9179C9.44562 19.6185 8.93042 20.3192 8.93042 20.3192C8.93042 20.3192 8.93042 20.4944 8.7587 20.4944C8.7587 20.6695 8.58694 20.8447 8.41522 21.0198C8.24347 21.3702 8.07172 21.7205 8.07172 21.7205C7.89996 21.3702 7.72824 21.195 7.72824 20.8447C7.89999 20.6695 8.24347 20.4944 8.41522 20.144C8.58694 19.7937 8.75867 19.4434 8.58694 18.7427C8.24347 17.6917 6.69781 16.1152 6.18262 15.5897C6.18262 15.7649 6.01086 16.1152 5.83914 16.2904C5.66739 16.6407 5.66736 16.991 5.49564 17.5165C5.32388 18.3924 5.32388 19.2682 5.49564 19.7937C5.83911 20.8447 6.86954 21.0198 7.21301 21.0198C7.38477 21.5453 7.55652 22.246 7.55652 22.5963C7.55652 22.5963 7.55652 22.7715 7.38477 22.9467C7.21304 23.1218 7.21304 23.4722 7.04129 23.8225C6.86957 24.348 6.52606 25.0486 6.52606 25.0486C6.52606 25.0486 6.52606 25.0486 6.52606 25.2238C6.52606 25.399 6.35434 25.5742 6.35434 25.7493C6.18259 26.0996 6.18262 26.45 6.18262 26.45L6.01086 26.8003C5.83911 26.6251 5.83911 26.45 5.66739 26.45C5.66739 26.2748 5.49564 26.2748 5.49564 26.0996C5.66736 25.9245 5.83911 25.7493 6.01086 25.2238C6.18259 24.8735 6.18259 24.348 6.01086 23.8225C5.49564 22.9467 3.77826 21.3702 3.26306 21.0198C3.09131 21.7205 2.74783 24.348 3.26306 25.2238C3.26306 25.2238 3.26303 25.399 3.43478 25.399C3.94998 26.2748 4.80869 26.2748 5.32391 26.0996C5.49564 26.45 5.83914 27.1506 5.83914 27.6761C5.83914 27.6761 5.83911 27.8513 5.66739 28.2016C5.66739 28.5519 5.49564 28.9023 5.49564 29.2526C5.32388 29.603 5.32391 29.9533 5.32391 30.3036C5.32391 30.6539 5.15216 30.8291 5.15216 30.8291C5.15216 30.8291 5.15219 31.1794 4.98044 31.7049C4.80869 32.0553 4.80869 32.5807 4.80869 32.5807C4.63696 32.4056 4.29349 32.0553 4.12173 31.8801C4.29349 31.7049 4.46521 31.3546 4.46521 31.0043C4.46521 30.6539 4.46521 30.1284 4.12173 29.6029C3.60654 28.7271 1.54565 27.6761 1.03046 27.3258C1.03046 27.6761 1.03046 28.5519 1.03046 29.4278C1.20218 30.3036 1.3739 31.1794 1.71738 31.5298C2.40433 32.4056 3.26303 32.2304 3.77826 32.0553C4.12173 32.4056 4.46521 33.1062 4.63693 33.4566C4.63693 33.4566 4.63693 33.6317 4.63693 33.8069C4.63693 33.9821 4.63693 34.3324 4.63693 34.6827C4.63693 35.0331 4.63693 35.3834 4.63693 35.5586C4.63693 35.7337 4.63693 35.9089 4.63693 35.9089L4.63693 37.3102L4.63693 37.6606C4.46521 37.4854 4.29346 37.4854 4.29346 37.3102C4.12173 37.3102 4.12173 37.1351 3.94998 37.1351C4.12173 36.9599 4.12173 36.6096 4.12173 36.2592C4.12173 35.9089 3.95001 35.3834 3.60654 35.0331C2.91956 34.3324 0.686951 33.4566 0.171753 33.2814C0.171753 33.6317 0.343475 34.5076 0.515228 35.2082C0.686951 36.084 1.03043 36.7847 1.3739 37.3102C1.3739 37.3102 1.37393 37.3102 1.54565 37.4854C2.40436 38.186 3.09131 37.8357 3.43478 37.6606C3.77826 38.0109 4.29349 38.5364 4.46521 38.8867C4.46521 38.8867 4.46521 39.0619 4.46521 39.4122C4.46521 39.7625 4.46521 40.1129 4.46521 40.4632C4.46521 40.8135 4.46521 41.1638 4.63693 41.5142C4.63693 41.8645 4.63693 42.0397 4.63693 42.0397C4.63693 42.0397 4.63696 42.5652 4.80869 42.9155C4.80869 43.2658 4.98044 43.7913 4.98044 43.7913C4.63696 43.6162 4.46521 43.441 4.12173 43.441C4.29349 43.0907 4.46521 42.0397 3.60654 41.339C2.74783 40.6384 0.515228 40.288 0 40.288C0.171753 40.6384 0.343506 41.339 0.686981 42.2148C1.03046 42.9155 1.54565 43.7914 1.88913 44.1417C2.74783 44.8423 3.60651 44.3168 3.94998 43.9665C4.29349 44.3168 4.80869 44.6672 5.15216 45.0175C5.15216 45.0175 5.32388 45.7182 5.49564 46.2437C5.49564 46.594 5.66739 46.9443 5.66739 47.1195C5.66739 47.2946 5.83914 47.4698 5.83914 47.4698C5.83914 47.4698 6.01086 47.8201 6.01086 48.1705C6.01086 48.3456 6.18262 48.5208 6.18262 48.696C6.18262 48.8711 6.18262 48.8711 6.18262 48.8711L6.35434 49.2215C6.18259 49.2215 6.01086 49.0463 5.83914 49.0463C5.66739 49.0463 5.66736 48.8711 5.49564 48.8711C5.49564 48.696 5.49564 48.3456 5.49564 47.9953C5.32388 47.645 5.15216 47.2946 4.63693 46.9443C3.77826 46.4188 1.3739 46.4188 0.858704 46.4188C1.03043 46.7692 1.37393 47.4698 1.88913 48.1705C2.40436 48.8711 2.91956 49.5718 3.43478 49.7469L3.60654 49.7469C4.46521 50.0973 5.15216 49.5718 5.49564 49.2215C5.83911 49.3966 6.52606 49.7469 6.86954 50.0973C6.86954 50.0973 7.21304 50.7979 7.38477 51.4986C7.55652 51.8489 7.72824 52.1993 7.89999 52.5496C8.07172 52.8999 8.07172 53.0751 8.07172 53.0751C8.07172 53.0751 8.07172 53.2503 8.24347 53.2503C8.24347 53.4254 8.41519 53.6006 8.58694 53.7758C8.75867 54.1261 8.93042 54.6516 8.93042 54.6516C8.58694 54.6516 8.24344 54.4764 8.07172 54.4764C8.07172 54.3013 8.07172 53.9509 7.89999 53.6006C7.72824 53.2502 7.38477 52.8999 6.86954 52.7248C6.35434 52.5496 5.49564 52.5496 4.80869 52.5496C4.12173 52.5496 3.26303 52.7248 3.09131 52.7248C3.26303 52.8999 3.26303 53.0751 3.60654 53.4254C3.77826 53.7758 4.12173 53.9509 4.29346 54.3013C4.80869 55.0019 5.49564 55.5274 6.01086 55.7026C7.04129 56.0529 7.72824 55.3523 7.89999 55.0019C8.07172 55.0019 8.41519 55.1771 8.58694 55.3522C8.93042 55.5274 9.10217 55.5274 9.2739 55.7026C9.2739 55.7026 9.2739 55.8777 9.44562 56.0529C9.61737 56.2281 9.78912 56.5784 9.96085 56.7536C10.3043 57.2791 10.6478 57.8046 10.6478 57.8046C10.6478 57.8046 10.6478 57.8046 10.8195 57.9797C10.8195 58.1549 10.9913 58.1549 11.163 58.3301C11.3347 58.6804 11.5065 58.8556 11.5065 58.8556L12.1935 58.3301Z" fill="#F5EFDB" fill-opacity="1.000000" fill-rule="nonzero"/>
	<path id="Vector" d="M66.2915 59.9074C65.9481 60.2578 65.6046 60.7833 65.6046 60.7833C65.6046 60.4329 65.4328 60.0826 65.4328 59.9074C65.6046 59.9074 65.7763 59.7323 65.9481 59.5571C66.1198 59.3819 66.1198 59.3819 66.2915 59.2068C66.2915 59.0316 66.4633 58.8564 66.4633 58.6813C66.4633 58.5061 66.4633 58.3309 66.4633 57.9806C66.2915 56.9296 64.5742 55.3531 64.2307 55.0028C64.2307 55.178 64.0589 55.3531 64.0589 55.7035C64.0589 56.0538 63.8872 56.4041 63.8872 56.7545C63.8872 57.1048 63.7155 57.4551 63.7155 57.6303C63.7155 57.9806 63.7155 58.1558 63.7155 58.5061C63.8872 59.5571 64.7459 59.9074 65.2611 59.9074C65.2611 60.4329 65.2611 61.1336 65.2611 61.4839C65.2611 61.4839 65.0894 61.6591 64.9176 62.0094C64.7459 62.1846 64.4024 62.5349 64.4024 62.5349C64.4024 62.5349 64.2307 62.7101 64.0589 62.8853C63.8872 63.0604 63.8872 63.0604 63.7155 63.2356C63.5437 63.4107 63.3719 63.5859 63.2002 63.7611C62.8568 64.1114 62.5133 64.4617 62.3415 64.6369C62.1698 64.8121 61.998 64.9872 61.998 64.9872C61.998 64.6369 61.998 64.2866 61.998 64.1114C62.1698 64.1114 62.5133 63.9362 62.8568 63.7611C63.2002 63.5859 63.372 63.0604 63.372 62.5349C63.372 61.4839 61.9981 59.5571 61.6546 59.2068C61.4828 59.3819 61.3111 60.0826 60.9676 60.6081C60.6241 61.3087 60.4524 62.0094 60.4524 62.3597C60.4524 63.4107 61.3111 63.9362 61.6546 64.1114C61.6546 64.6369 61.4828 65.3376 61.4828 65.6879L60.4524 66.5637C60.4524 66.5637 60.2807 66.7389 60.1089 66.7389C59.9372 66.914 59.7654 66.9141 59.7654 66.9141C59.7654 66.9141 59.422 67.2644 58.9068 67.4395C58.735 67.6147 58.3915 67.7899 58.3915 67.7899C58.2198 67.965 58.0481 67.965 58.0481 67.965C58.0481 67.6147 58.0481 67.2644 58.0481 67.0892C58.3915 67.0892 59.0785 66.9141 59.2502 66.2134C59.2502 66.0382 59.422 65.863 59.422 65.6879C59.5937 64.6369 58.3915 62.5349 58.2198 62.0094C58.2198 62.1846 58.048 62.3597 57.8763 62.5349C57.7046 62.7101 57.5329 63.0604 57.3611 63.4107C57.0176 63.9362 56.6741 64.6369 56.6741 64.9872C56.5024 66.0382 57.1894 66.5637 57.7046 66.9141C57.5328 67.2644 57.3611 67.965 57.1894 68.4905L56.1589 69.1912C56.1589 69.1912 55.9872 69.3664 55.6437 69.3664C55.3002 69.5415 54.9568 69.7167 54.6133 69.8918C54.2698 70.067 53.7546 70.2422 53.5828 70.4174C53.2393 70.5925 53.0676 70.5925 53.0676 70.5925C53.0676 70.2422 53.2393 69.8918 53.2393 69.7167C53.4111 69.7167 53.7546 69.7167 54.0981 69.5415C54.4415 69.3664 54.785 69.016 54.9568 68.4905C55.3002 67.4395 54.4416 65.3376 54.2698 64.6369C54.0981 64.8121 54.0981 64.9872 53.9263 65.1624C53.7546 65.3376 53.5829 65.5127 53.2393 65.863C52.8959 66.3885 52.3807 66.914 52.209 67.4395C51.8655 68.4905 52.5524 69.1912 52.8959 69.5415C52.7242 69.8919 52.3807 70.5925 52.209 70.9428C52.209 70.9428 51.8654 71.118 51.6937 71.118C51.522 71.118 51.3503 71.2932 51.3503 71.2932C51.1785 71.2932 51.1785 71.2932 51.1785 71.2932L50.3198 71.6435C50.3198 71.6435 50.1481 71.6435 49.9763 71.8187C49.8046 71.8187 49.4611 71.9938 49.2894 71.9938C48.7741 72.169 48.2589 72.3442 48.2589 72.3442C48.4307 71.9938 48.4307 71.8187 48.6024 71.4684C48.7742 71.4684 48.9459 71.4684 49.2894 71.4684C49.6328 71.4684 49.8046 71.2932 50.1481 71.118C50.3198 70.9428 50.3198 70.7677 50.4915 70.5925C50.6633 70.067 50.6633 69.3664 50.6633 68.4905C50.6633 67.7899 50.4915 66.914 50.3198 66.7389C50.1481 66.914 49.6328 67.2644 49.1176 67.7899C48.9459 67.965 48.6024 68.3154 48.4307 68.4905C48.2589 68.6657 48.0872 69.016 47.9155 69.1912C47.4003 70.2422 47.9155 70.9428 48.2589 71.2932C48.0872 71.6435 47.572 72.169 47.4002 72.5193C47.4002 72.5193 47.0568 72.5193 46.7133 72.6945L46.5416 72.6945C44.309 72.8697 40.7024 73.22 40.7024 73.22C40.7024 73.22 36.5807 73.0448 34.5198 72.8697C34.5198 72.8697 34.5198 72.8697 34.3481 72.8697C34.1763 72.8697 34.0046 72.8697 34.0046 72.8697C33.6611 72.8697 33.3177 72.6945 33.3177 72.6945C32.9742 72.3442 32.6307 71.8187 32.459 71.4684C32.8024 71.118 33.3177 70.4174 32.8024 69.3664C32.6307 69.1912 32.6307 68.8409 32.2872 68.6657C32.1155 68.4905 31.772 68.1402 31.6003 67.965C31.0851 67.4395 30.5698 67.0892 30.3981 66.9141C30.3981 67.2644 30.2263 67.965 30.0546 68.6657C30.0546 69.3664 30.0546 70.2422 30.2263 70.7677C30.3981 70.9428 30.3981 71.118 30.5698 71.2932C30.7416 71.4684 31.0851 71.6435 31.4285 71.6435C31.772 71.6435 31.9437 71.6435 32.1155 71.6435C32.2872 71.8187 32.2872 72.169 32.459 72.5193C32.459 72.5193 31.9437 72.3442 31.4285 72.169C31.2568 72.169 30.9133 71.9938 30.7416 71.9938C30.5698 71.9938 30.3981 71.8187 30.3981 71.8187L29.5394 71.4684C29.5394 71.4684 29.5394 71.4684 29.3676 71.4684C29.3676 71.4684 29.3676 71.4684 29.1959 71.4684C29.0242 71.4684 29.0242 71.2932 28.8524 71.2932C28.509 71.118 28.3372 71.118 28.3372 71.118C28.1655 70.7677 27.822 70.067 27.6503 69.7167C27.9937 69.3664 28.6807 68.6657 28.3372 67.6147C28.1655 67.0892 27.822 66.5637 27.3068 66.0382C27.135 65.8631 26.9633 65.5127 26.6198 65.3376C26.4481 65.1624 26.2763 64.9872 26.2763 64.8121C26.1046 65.3376 25.2459 67.6147 25.5894 68.6657C25.7611 69.1912 26.1046 69.5415 26.4481 69.7167C26.7916 69.8918 27.135 69.8918 27.3068 69.8918C27.3068 70.067 27.4785 70.4174 27.4785 70.7677C27.4785 70.7677 27.3068 70.5925 26.9633 70.5925C26.6198 70.4174 26.2764 70.2422 25.9329 70.067C25.5894 69.8918 25.2459 69.7167 24.9024 69.5415C24.559 69.3664 24.3872 69.3664 24.3872 69.3664L23.3568 68.6657C23.1851 68.3154 23.0133 67.6147 22.8416 67.0892C23.1851 66.9141 23.872 66.2134 23.872 65.1624C23.872 64.6369 23.5285 64.1114 23.1851 63.5859C23.0133 63.2356 22.8416 63.0604 22.6698 62.7101C22.4981 62.5349 22.3264 62.1846 22.3264 62.1846C21.9829 62.7101 20.9524 64.812 20.9524 65.863C20.9524 66.0382 20.9525 66.2134 21.1242 66.3885C21.4677 67.0892 21.9829 67.2644 22.3264 67.2644C22.3264 67.4395 22.3264 67.7899 22.3264 68.1402C22.3264 68.1402 22.1546 68.1402 21.9829 67.965C21.8111 67.7899 21.6394 67.7899 21.4677 67.6147C21.1242 67.2644 20.6089 66.9141 20.6089 66.9141C20.6089 66.9141 20.4372 66.7389 20.2655 66.7389C20.0938 66.5637 19.922 66.5637 19.922 66.5637L18.5481 65.5127C18.3763 65.1624 18.3763 64.4617 18.3763 63.9362C18.7198 63.7611 19.5786 63.2356 19.5786 62.1846C19.5786 61.6591 19.4068 60.9584 19.0633 60.4329C18.8916 59.7323 18.5481 59.2068 18.3763 59.0316C18.0329 59.5571 16.659 61.3087 16.659 62.3597C16.659 62.8852 16.8307 63.2356 17.1742 63.5859C17.5177 63.7611 17.6894 63.9362 18.0329 63.9362C18.0329 64.1114 18.0329 64.4617 18.0329 64.8121C18.0329 64.8121 17.8611 64.6369 17.6894 64.4617C17.5177 64.2866 17.1742 63.9362 16.8307 63.5859C16.659 63.4107 16.4872 63.2356 16.3155 63.0604C16.1437 62.8853 15.972 62.7101 15.972 62.7101C15.8003 62.5349 15.6285 62.3597 15.6285 62.3597C15.6285 62.3597 15.4568 62.1846 15.1133 61.8343C14.9416 61.6591 14.7698 61.3087 14.7698 61.3087C14.7698 60.7833 14.7698 60.2578 14.7698 59.7323C15.2851 59.7323 16.1437 59.3819 16.3155 58.3309C16.3155 58.1558 16.3155 57.8055 16.3155 57.4551C16.3155 57.1048 16.1438 56.7545 16.1438 56.5793C16.1438 56.229 15.972 55.8786 15.972 55.5283C15.972 55.178 15.8003 55.0028 15.8003 54.8276C15.285 55.178 13.7394 56.9296 13.5677 57.8055C13.5677 57.9806 13.5677 58.1558 13.5677 58.5061C13.5677 58.6813 13.5677 58.8564 13.7394 59.0316C13.7394 59.2068 13.9111 59.2068 14.0829 59.3819C14.2546 59.5571 14.4264 59.7323 14.5981 59.7323C14.5981 59.9074 14.4264 60.2578 14.4264 60.6081C14.4264 60.6081 14.0829 60.2578 13.7394 59.7323C13.3959 59.3819 13.0525 58.8564 13.0525 58.8564L12.3655 59.3819L12.5372 59.7323C12.3655 59.7323 12.1938 59.7323 12.022 59.7323C11.8503 59.7323 11.8503 59.7323 11.6785 59.7323C11.6785 59.5571 11.5068 59.2068 11.3351 58.8564C11.1633 58.5061 10.8198 58.1558 10.3046 58.1558C9.2742 57.9806 7.0416 58.6813 6.52637 58.8564C6.69812 59.0316 6.86984 59.2068 7.0416 59.3819C7.21332 59.5571 7.55679 59.9074 7.9003 60.2578C8.58725 60.7833 9.27417 61.3087 9.7894 61.3087L9.96115 61.3087C10.9916 61.3087 11.3351 60.6081 11.5068 60.2578C12.022 60.4329 12.709 60.4329 13.0525 60.6081C13.0525 60.6081 13.2242 60.7833 13.3959 60.9584C13.5677 61.1336 13.7394 61.4839 14.0829 61.8343C14.2546 62.1846 14.5981 62.3597 14.7698 62.7101C14.9416 62.8853 15.1133 63.0604 15.1133 63.0604C15.1133 63.0604 15.4568 63.4107 15.6285 63.7611C15.8003 63.9362 15.972 64.1114 15.972 64.1114C16.1437 64.2866 16.1438 64.2866 16.1438 64.2866C15.8003 64.2866 15.4568 64.4617 15.2851 64.4617C15.2851 64.2866 15.1133 63.9362 14.7698 63.5859C14.5981 63.2356 14.0829 63.0604 13.5677 63.0604C12.5372 63.0604 10.4763 64.1114 9.96115 64.2866C10.3046 64.4617 10.8199 64.9872 11.6785 65.3376C12.3655 65.6879 13.2242 66.0382 13.7394 66.0382C14.9416 66.0382 15.2851 65.1624 15.2851 64.6369C15.8003 64.6369 16.4872 64.6369 16.8307 64.8121C16.8307 64.8121 17.0024 64.9872 17.1742 65.1624C17.3459 65.3376 17.5177 65.5127 17.8611 65.6879C18.0329 65.863 18.3763 66.0382 18.5481 66.2134C18.7198 66.3885 18.8916 66.3885 18.8916 66.3885C18.8916 66.3885 19.235 66.5637 19.4068 66.9141C19.5785 67.0892 19.7503 67.0892 19.7503 67.2644C19.922 67.2644 19.922 67.4395 19.922 67.4395L20.0938 67.6147C19.922 67.6147 19.7503 67.7899 19.5786 67.7899C19.4068 67.7899 19.4068 67.7899 19.235 67.965C19.0633 67.7899 18.8916 67.4395 18.7198 67.2644C18.3764 67.0892 18.0329 66.9141 17.5176 66.9141C16.4872 67.0892 14.5981 68.3154 14.0829 68.6657C14.4264 68.8409 15.1133 69.1912 15.8003 69.5415C16.659 69.8919 17.3459 70.067 18.0329 70.067L18.2046 70.067C19.235 69.8918 19.4068 69.016 19.4068 68.4905C19.922 68.4905 20.6089 68.3154 20.9524 68.3154C20.9524 68.3154 21.6394 68.6657 22.3264 69.1912C23.0133 69.5415 23.7003 70.067 23.7003 70.067C23.7003 70.067 23.872 70.067 23.872 70.2422C24.0438 70.2422 24.2155 70.4174 24.3872 70.5925C24.7307 70.7677 25.2459 70.9428 25.2459 70.9428C24.9024 71.118 24.7307 71.2932 24.3872 71.2932C24.2155 71.118 24.0437 70.7677 23.7003 70.5925C23.3568 70.4174 23.0133 70.2422 22.3264 70.4174C21.2959 70.7677 19.7502 72.3442 19.235 72.8697C19.4068 72.8697 19.7503 73.0448 19.922 73.22C20.2655 73.3951 20.6089 73.3952 21.1242 73.5703C21.9829 73.7455 22.8416 73.7455 23.3568 73.5703C24.3872 73.22 24.559 72.169 24.559 71.8187C25.0742 71.6435 25.7611 71.4684 26.1046 71.4684C26.1046 71.4684 26.2764 71.4684 26.4481 71.6435C26.6198 71.8187 26.9633 71.8187 27.3068 71.9938C27.822 72.169 28.509 72.5193 28.509 72.5193C28.509 72.5193 28.5089 72.5193 28.6807 72.5193C28.8524 72.5193 29.0242 72.6945 29.1959 72.6945C29.5394 72.8697 29.8829 72.8697 29.8829 72.8697L30.2263 73.0448C30.0546 73.22 29.8829 73.22 29.8829 73.3952C29.7112 73.3952 29.7111 73.5703 29.5394 73.5703C29.3676 73.3952 29.1959 73.22 28.6807 73.0448C28.3372 72.8697 27.822 72.8697 27.3068 73.0448C26.4481 73.5703 24.9024 75.322 24.559 75.8475C25.2459 76.0226 27.822 76.373 28.6807 75.8475C28.6807 75.8475 28.8524 75.8475 28.8524 75.6723C29.7111 75.1468 29.5394 74.271 29.5394 73.7455C29.8828 73.5703 30.5698 73.22 31.0851 73.22C31.0851 73.22 31.2568 73.22 31.6003 73.3952C31.9438 73.5703 32.2872 73.5703 32.6307 73.7455C32.9742 73.9207 33.3177 73.9207 33.6611 73.9207C34.0046 73.9207 34.1764 73.9207 34.1764 73.9207C35.2068 74.0958 36.7524 74.271 38.1263 74.4462C38.1263 74.4462 38.2981 74.4462 38.4698 74.4462C33.8329 76.0226 32.6307 79.0005 32.6307 79.0005L34.6916 79.0005C35.2068 77.2488 38.1263 75.8475 40.3589 75.1468C42.4198 76.0226 45.3394 77.424 46.0263 79.0005L48.0872 79.0005C48.0872 79.0005 46.885 76.0226 42.2481 74.4462C42.2481 74.4462 42.248 74.4462 42.4198 74.4462C43.7937 74.271 46.1981 74.0958 47.7437 73.7455C47.9155 73.7455 48.0872 73.7455 48.2589 73.5703C48.6024 73.3952 48.9459 73.3951 49.2894 73.22C49.6328 73.22 49.8046 73.0448 49.8046 73.0448C50.1481 73.22 50.835 73.3952 51.3503 73.7455C51.3503 74.0958 51.1785 75.1468 52.0372 75.6723L52.209 75.6723C53.2394 76.1978 55.6437 75.8475 56.3307 75.6723C55.9872 75.1468 54.6133 73.22 53.5828 72.8697C53.0676 72.6945 52.5524 72.6945 52.209 72.8697C51.8655 73.0448 51.522 73.22 51.3503 73.3952C51.1785 73.3952 51.1785 73.22 51.0067 73.22C50.835 73.0448 50.6633 73.0448 50.6633 72.8697L51.0067 72.6945C51.0067 72.6945 51.3503 72.5193 51.6937 72.5193C51.8654 72.5193 52.0372 72.3442 52.209 72.3442C52.3807 72.3442 52.3807 72.3442 52.3807 72.3442C52.3807 72.3442 52.8959 72.169 53.5828 71.8187C53.9263 71.6435 54.0981 71.6435 54.4415 71.4684C54.6133 71.2932 54.785 71.2932 54.785 71.2932C55.3002 71.2932 55.9872 71.6435 56.3307 71.6435C56.3307 72.169 56.3307 73.0448 57.5328 73.3952C58.0481 73.5703 58.9068 73.5703 59.7654 73.3952C60.1089 73.3952 60.6241 73.22 60.9676 73.0448C61.3111 72.8697 61.6546 72.8697 61.6546 72.6945C61.1394 72.169 59.5937 70.5925 58.5633 70.2422C58.0481 70.067 57.5328 70.2422 57.1894 70.4174C56.8459 70.5925 56.6742 70.9428 56.5024 71.118C56.3307 70.9428 55.9872 70.9428 55.6437 70.7677C55.6437 70.7677 55.9872 70.5925 56.3307 70.4174C56.5024 70.2422 56.6742 70.2422 56.8459 70.067C57.0176 70.067 57.0176 69.8918 57.0176 69.8918C57.0176 69.8918 57.7046 69.5415 58.3915 69.016C59.0785 68.6657 59.7654 68.1402 59.7654 68.1402C60.2807 68.1402 60.9676 68.1402 61.3111 68.3154C61.3111 68.6657 61.4828 69.5415 62.5133 69.8918L62.685 69.8918C63.2002 70.067 64.0589 69.7167 64.9176 69.5415C65.7763 69.1912 66.4633 68.8409 66.635 68.6657C66.1198 68.3154 64.2307 66.9141 63.2002 66.9141C62.685 66.9141 62.1698 67.0892 61.998 67.2644C61.6546 67.4395 61.4828 67.7899 61.4828 67.965C61.3111 67.965 61.3111 67.965 61.1394 67.7899C60.9676 67.7899 60.7959 67.6147 60.6241 67.6147L60.9676 67.4395C60.9676 67.4395 60.9676 67.4395 61.1394 67.2644C61.3111 67.2644 61.3111 67.0892 61.4828 66.9141C61.8263 66.7389 61.998 66.3885 61.998 66.3885C61.998 66.3885 62.1698 66.2134 62.3415 66.2134C62.5133 66.0382 62.8568 65.863 63.0285 65.6879C63.2002 65.5127 63.5437 65.3376 63.7155 65.1624C63.8872 64.9872 64.0589 64.8121 64.0589 64.8121C64.4024 64.6369 65.2611 64.6369 65.6046 64.6369C65.7763 64.9872 66.1198 66.0382 67.1502 66.0382C67.6654 66.0382 68.5241 65.6879 69.2111 65.3376C69.898 64.9872 70.585 64.4617 70.9285 64.2866C70.4133 63.9362 68.3524 62.8853 67.322 63.0604C66.8067 63.0604 66.2915 63.2356 66.1198 63.5859C65.7763 63.9362 65.7763 64.2866 65.6046 64.4617C65.4328 64.4617 65.0894 64.4617 64.7459 64.2866C64.7459 64.2866 64.7459 64.2866 64.9176 64.1114C65.0894 63.9362 65.2611 63.7611 65.2611 63.7611C65.6046 63.4107 65.9481 63.0604 65.9481 63.0604C65.9481 63.0604 66.1198 62.8853 66.2915 62.7101C66.4633 62.5349 66.8067 62.1846 66.9785 61.8343C67.1502 61.4839 67.4937 61.3087 67.6655 60.9584C67.8372 60.7833 68.0089 60.6081 68.0089 60.6081C68.3524 60.4329 69.0393 60.2578 69.5546 60.2578C69.7263 60.6081 70.2415 61.4839 71.1002 61.3087L71.272 61.3087C71.7872 61.1336 72.4741 60.7833 73.1611 60.2578C73.5046 59.9074 73.8481 59.7323 74.0198 59.5571C74.1915 59.3819 74.535 59.0316 74.535 59.0316C74.0198 58.8564 71.7872 58.1558 70.7567 58.3309C70.2415 58.5061 69.898 58.6813 69.7263 59.0316C69.5546 59.3819 69.3828 59.7323 69.3828 59.9074C69.2111 59.9074 69.2111 59.9074 69.0393 59.9074C68.8676 59.9074 68.6959 59.9074 68.5241 59.9074L68.6959 59.5571L68.0089 59.0316C66.9785 59.0316 66.635 59.5571 66.2915 59.9074Z" fill="#F5EFDB" fill-opacity="1.000000" fill-rule="nonzero"/>
	<path id="Vector" d="M73.5043 46.9445C73.6761 46.2438 73.8478 45.7183 73.8478 45.7183C74.1913 45.368 74.7065 45.0176 75.05 44.6673C75.3935 45.0176 76.2522 45.5432 77.1109 44.8425C77.6261 44.4922 77.9695 43.7915 78.313 42.9156C78.6565 42.215 78.8282 41.3392 79 40.9888C78.313 41.164 76.0804 41.5143 75.3935 42.0398C74.5348 42.7405 74.7065 43.7915 74.8783 44.1418C74.7065 44.317 74.363 44.4922 74.0196 44.4922C74.0196 44.4922 74.0195 44.1418 74.1913 43.6163C74.1913 43.0908 74.363 42.7405 74.363 42.7405C74.363 42.7405 74.363 42.5653 74.363 42.215C74.363 41.8647 74.363 41.5143 74.5348 41.164C74.5348 40.8137 74.5348 40.4633 74.5348 40.113C74.5348 39.7627 74.5348 39.5875 74.5348 39.5875C74.7065 39.2372 75.2217 38.7117 75.5652 38.3614C75.9087 38.5365 76.7674 38.8869 77.4543 38.1862C77.4543 38.1862 77.6261 38.1862 77.6261 38.011C77.9695 37.6607 78.313 36.7849 78.4847 35.9091C78.6565 35.0332 78.8282 34.3326 78.8282 33.9822C78.313 34.1574 76.0804 34.8581 75.3935 35.7339C75.05 36.0842 74.8783 36.6097 74.8783 36.96C74.8783 37.3104 75.05 37.6607 75.05 37.8359C75.05 37.8359 74.8782 38.011 74.7065 38.011C74.5348 38.1862 74.363 38.1862 74.363 38.3614L74.363 38.011L74.363 36.6097C74.363 36.6097 74.363 36.4345 74.363 36.2594C74.363 36.0842 74.363 35.7339 74.363 35.3835C74.363 35.0332 74.363 34.6829 74.363 34.5077C74.363 34.3326 74.363 34.1574 74.363 34.1574C74.5348 33.8071 74.8783 33.1064 75.2217 32.7561C75.5652 32.9312 76.5956 33.1064 77.2826 32.2306C77.6261 31.8802 77.7978 31.0044 77.9696 30.1286C78.1413 29.2528 78.1413 28.3769 77.9696 28.0266C77.4543 28.3769 75.3935 29.4279 74.7065 30.3038C74.363 30.8293 74.363 31.1796 74.363 31.7051C74.363 32.0554 74.5348 32.4057 74.7065 32.5809C74.5348 32.7561 74.363 32.9312 74.0196 33.2816C74.0196 33.2816 74.0196 32.7561 73.8478 32.4057C73.8478 32.0554 73.6761 31.5299 73.6761 31.5299C73.6761 31.5299 73.6761 31.3547 73.6761 31.0044C73.6761 30.6541 73.5043 30.3037 73.5043 29.9534C73.5043 29.6031 73.3326 29.2527 73.3326 28.9024C73.3326 28.5521 73.1609 28.377 73.1609 28.377C73.3326 28.0266 73.5043 27.326 73.8478 26.8004C74.1913 26.8004 75.2217 26.9756 75.7369 26.0998L75.7369 25.9246C76.2522 25.0488 75.9087 22.4213 75.7369 21.7206C75.2217 22.071 73.3326 23.4723 72.9891 24.5233C72.8174 25.0488 72.8174 25.5743 72.9891 25.9246C73.1609 26.275 73.3326 26.6253 73.5043 26.8004C73.5043 26.9756 73.3326 26.9756 73.3326 27.1508C73.1609 27.3259 73.1609 27.5011 72.9891 27.5011L72.8174 27.1508C72.8174 27.1508 72.6457 26.8004 72.6457 26.4501C72.6457 26.2749 72.4739 26.0998 72.4739 25.9246C72.4739 25.7495 72.4739 25.7495 72.4739 25.7495C72.4739 25.7495 72.3022 25.2239 71.9587 24.5233C71.787 24.173 71.787 23.9978 71.6152 23.6475C71.4435 23.4723 71.4435 23.2971 71.4435 23.2971C71.4435 22.7716 71.787 22.2462 71.787 21.7206C72.3022 21.7206 73.1609 21.7206 73.5043 20.4945C73.6761 19.969 73.6761 19.0932 73.5043 18.2173C73.5043 17.867 73.3326 17.3415 73.1609 16.9912C72.9891 16.6409 72.9891 16.2905 72.8174 16.2905C72.3022 16.816 70.7565 18.3925 70.413 19.4435C70.2413 19.969 70.4131 20.4945 70.5848 20.8448C70.7565 21.1952 71.1 21.3703 71.2717 21.5455C71.1 21.7206 71.1 22.071 70.9283 22.4213C70.9283 22.4213 70.7565 22.071 70.5848 21.5455C70.4131 21.3703 70.4131 21.1952 70.2413 21.02C70.2413 20.8448 70.0696 20.8448 70.0696 20.8448C70.0696 20.8448 69.7261 20.1442 69.3826 19.4435C69.0392 18.7428 68.5239 18.0422 68.5239 18.0422C68.5239 17.5167 68.5239 16.816 68.6956 16.4657C69.0391 16.4657 69.8978 16.2905 70.2413 15.2395L70.2413 15.0644C70.4131 14.5388 70.0695 13.6631 69.8978 12.7872C69.5544 11.9114 69.2109 11.2107 69.0391 11.0356C68.6956 11.5611 67.3217 13.4879 67.15 14.5389C67.15 15.0644 67.3217 15.5898 67.4935 15.765C67.6652 16.1154 68.0087 16.2905 68.1804 16.2905C68.1804 16.4657 68.1805 16.4657 68.0087 16.6408C68.0087 16.816 67.8369 16.9912 67.8369 17.1664L67.6652 16.816C67.6652 16.816 67.6652 16.816 67.4935 16.6408C67.4935 16.4657 67.3217 16.4657 67.15 16.2905C66.9783 15.9402 66.6348 15.765 66.6348 15.765C66.6348 15.765 66.463 15.5899 66.463 15.4147C66.2913 15.2395 66.1196 14.8892 65.9478 14.714C65.7761 14.5389 65.6044 14.1885 65.4326 14.0134C65.2609 13.8382 65.2609 13.6631 65.2609 13.6631C65.0891 13.3127 65.0891 12.4369 65.0891 12.0865C65.4326 11.9114 66.463 11.561 66.463 10.5101C66.463 9.98456 66.1196 9.10873 65.7761 8.40808C65.4326 7.7074 64.9174 7.00677 64.7457 6.65643C64.4022 7.18195 63.3717 9.28391 63.5435 10.3349C63.5435 10.8604 63.7152 11.3859 64.0587 11.561C64.4022 11.9114 64.7457 11.9114 64.9174 12.0865C64.9174 12.2617 64.9174 12.6121 64.7457 12.9624C64.7457 12.9624 64.7457 12.9624 64.5739 12.7872C64.4022 12.6121 64.4022 12.4369 64.2305 12.4369C63.887 12.0865 63.5435 11.9114 63.5435 11.9114C63.5435 11.9114 63.3718 11.7362 63.2 11.561C63.0283 11.3859 62.6848 11.0356 62.3413 10.8604C61.9978 10.6852 61.8261 10.3349 61.4826 10.1597C61.3109 9.98456 61.1392 9.80939 61.1392 9.80939C60.9674 9.45908 60.7957 8.75842 60.7957 8.23291C61.1392 8.05774 61.9978 7.53223 61.8261 6.65643L61.8261 6.48126C61.6544 5.95575 61.3109 5.25507 60.7957 4.55444C60.4522 4.2041 60.2805 3.85376 59.937 3.67859C59.7653 3.50342 59.4218 3.15314 59.4218 3.15314C59.25 3.67859 58.563 5.95575 58.7348 7.00677C58.9065 7.53223 59.0783 7.88257 59.4218 8.05774C59.7653 8.23291 60.1087 8.40808 60.2805 8.40808C60.2805 8.58325 60.2805 8.58325 60.2805 8.75839C60.2805 8.93356 60.2805 9.10873 60.2805 9.28391L60.1087 9.10873C60.1087 9.10873 59.7652 8.93356 59.5935 8.75839C59.4218 8.58325 59.25 8.58325 59.25 8.40808C59.0783 8.40808 59.0783 8.23291 59.0783 8.23291C59.0783 8.23291 58.5631 7.88257 58.0479 7.53223C57.7044 7.35706 57.5327 7.18195 57.3609 7.00677C57.1892 6.8316 57.0174 6.8316 57.0174 6.8316C56.8457 6.65643 56.8457 6.30609 56.674 6.13092C56.5022 5.78058 56.5022 5.60541 56.3305 5.43024C56.674 5.25507 57.5326 4.55444 57.1891 3.50342C57.0174 2.97797 56.5022 2.27728 55.8152 1.75177C55.4718 1.40143 55.1283 1.22632 54.9565 1.05115C54.6131 0.875977 54.4413 0.700806 54.2696 0.525635C54.2696 0.875977 54.0979 1.5766 54.0979 2.27728C54.0979 2.97797 54.0979 3.85376 54.2696 4.37927C54.4413 4.90479 54.7848 5.25507 55.1283 5.43024C55.4718 5.60541 55.8152 5.60541 55.987 5.60541C55.987 5.78058 56.1587 6.13092 56.1587 6.48126C56.1587 6.48126 54.6131 5.95575 54.0979 5.78058C53.9261 5.60541 53.2392 5.43024 52.3805 5.07996C52.3805 4.72961 52.5522 3.67859 51.35 3.15314C50.4914 2.8028 48.087 3.15314 47.5718 3.15314C47.9153 3.67859 49.2892 5.60541 50.1479 5.95575C51.1783 6.30609 51.8653 5.78058 52.037 5.43024C53.5826 6.30609 55.3 7.18195 55.4718 7.35712C55.8152 7.53223 56.1588 7.7074 56.5022 7.88257C56.8457 8.05774 57.0174 8.23291 57.0174 8.23291C56.6739 8.40808 56.5022 8.40808 56.1587 8.58325C55.987 8.40808 55.8152 8.05774 55.4718 7.88257C55.1283 7.7074 54.7848 7.7074 54.2696 7.88257C53.4109 8.23291 52.037 10.1597 51.6935 10.6852C51.8653 10.6852 52.037 10.6852 52.3805 10.6852C52.7239 10.6852 52.8957 10.6852 53.2392 10.8604C53.9261 10.8604 54.6131 10.8604 55.1283 10.6852C56.1587 10.3349 56.3305 9.45908 56.3305 8.93356C56.8457 8.75839 57.3609 8.75839 57.8761 8.75839C57.8761 8.75839 58.2196 8.93356 58.3913 9.10873C58.563 9.10873 58.563 9.28391 58.7348 9.28391C58.9065 9.28391 58.9066 9.45908 58.9066 9.45908L59.5935 9.98456C59.5935 9.98456 59.937 10.3349 60.4522 10.6852C60.7957 11.0356 61.3109 11.3859 61.3109 11.3859C60.9674 11.3859 60.6239 11.561 60.4522 11.561C60.4522 11.3859 60.2805 11.2107 60.1087 11.0356C59.937 10.8604 59.937 10.8604 59.7652 10.6852C59.5935 10.6852 59.4218 10.5101 59.25 10.5101C59.0783 10.5101 58.9066 10.5101 58.5631 10.5101C57.5327 10.6852 55.987 12.4369 55.6435 12.7872C55.8152 12.7872 55.987 12.9624 56.3305 12.9624C56.674 12.9624 57.0174 13.1375 57.3609 13.1375C57.7044 13.1375 58.0479 13.3127 58.2196 13.3127C58.5631 13.3127 58.7348 13.3127 59.0783 13.3127C60.1087 13.1375 60.4522 12.2617 60.4522 11.7362C60.9674 11.7362 61.6544 11.7362 61.9979 11.7362C61.9979 11.7362 62.1696 11.9114 62.5131 12.0865C62.6848 12.2617 63.0283 12.6121 63.0283 12.6121C63.0283 12.6121 63.2 12.7872 63.3718 12.9624C63.5435 13.1375 63.5435 13.1375 63.7152 13.3127C63.887 13.4879 64.0587 13.663 64.2305 13.8382C64.5739 14.1885 64.7457 14.5389 65.0891 14.714C65.2609 14.8892 65.4326 15.0644 65.4326 15.0644C65.0891 15.0644 64.7457 15.0644 64.5739 15.0644C64.5739 14.8892 64.4022 14.5388 64.2305 14.1885C64.0587 13.8382 63.5435 13.6631 63.0283 13.6631C61.9978 13.6631 60.1087 15.0644 59.7652 15.4147C59.937 15.5899 60.6239 15.765 61.1392 16.1154C61.8261 16.4657 62.5131 16.6408 62.8565 16.6408C63.887 16.6408 64.4022 15.765 64.5739 15.4147C65.0891 15.4147 65.7761 15.5898 66.1196 15.5898L66.9783 16.6408C66.9783 16.6408 67.15 16.816 67.15 16.9912C67.3217 17.1664 67.3217 17.3415 67.3217 17.3415C67.3217 17.3415 67.6652 17.6918 67.8369 18.2173C68.0087 18.3925 68.1804 18.7428 68.1804 18.7428C68.3522 18.918 68.3522 19.0932 68.3522 19.0932C68.0087 19.0932 67.6652 19.0932 67.4935 19.0932C67.4935 18.7428 67.3217 18.0422 66.6348 17.867C66.463 17.867 66.2913 17.6918 66.1196 17.6918C65.0891 17.5167 63.0283 18.7428 62.5131 18.918C62.6848 18.918 62.8565 19.0932 63.0283 19.2683C63.2 19.4435 63.5435 19.6187 63.887 19.7938C64.4022 20.1442 65.0891 20.4945 65.4326 20.4945C66.463 20.6697 66.9783 19.969 67.3217 19.4435C67.6652 19.6187 68.3522 19.7938 68.8674 19.969L69.5544 21.02C69.5544 21.02 69.7261 21.1952 69.7261 21.5455C69.8978 21.8958 70.0696 22.2462 70.2413 22.5965C70.4131 22.9468 70.5848 23.4723 70.7565 23.6475C70.9283 23.9978 70.9283 24.173 70.9283 24.173C70.5848 24.173 70.2413 23.9978 70.0696 23.9978C70.0696 23.8226 70.0695 23.4723 69.8978 23.122C69.7261 22.7716 69.3826 22.4213 68.8674 22.2462C67.837 21.8958 65.7761 22.7716 65.0891 22.9468C65.4326 23.2971 66.8065 24.6985 67.8369 25.0488C68.8674 25.3991 69.5544 24.6985 69.8978 24.3481C70.2413 24.5233 70.9283 24.8736 71.2717 25.0488C71.2717 25.0488 71.4435 25.3991 71.4435 25.5743C71.4435 25.7495 71.6152 25.9246 71.6152 25.9246C71.6152 26.0998 71.6152 26.0998 71.6152 26.0998L71.9587 26.9756C71.9587 26.9756 71.9587 27.1508 72.1304 27.3259C72.1304 27.5011 72.3022 27.8514 72.3022 28.0266C72.4739 28.5521 72.6457 29.0776 72.6457 29.0776C72.3022 28.9024 72.1304 28.9024 71.787 28.7273C71.787 28.5521 71.787 28.3769 71.787 28.0266C71.787 27.6763 71.6152 27.5011 71.4435 27.1508C71.2717 26.9756 71.1 26.9756 70.9283 26.8004C70.4131 26.6253 69.7261 26.6253 68.8674 26.6253C68.1805 26.6253 67.3217 26.8004 67.15 26.9756C67.3217 27.1508 67.6652 27.6763 68.1804 28.2018C68.3522 28.3769 68.6956 28.7273 68.8674 28.9024C69.0392 29.0776 69.3826 29.2528 69.5544 29.4279C70.5848 29.9534 71.2717 29.4279 71.6152 29.0776C71.9587 29.2527 72.4739 29.7783 72.8174 29.9534C72.8174 29.9534 72.8174 30.3037 72.9891 30.6541C72.9891 30.8293 72.9891 31.0044 72.9891 31.0044C72.9891 31.1796 72.9891 31.1796 72.9891 31.1796C72.9891 31.1796 72.9891 31.3547 73.1609 31.7051C73.1609 32.0554 73.3326 32.4057 73.3326 32.9312C73.3326 33.4567 73.5043 33.8071 73.5043 34.1574C73.5043 34.5077 73.5043 34.6829 73.5043 34.6829C73.1609 34.5077 72.9891 34.3326 72.8174 34.1574C72.8174 33.9822 72.9891 33.6319 72.9891 33.2816C72.9891 32.9312 72.8174 32.5809 72.3022 32.2306C71.4435 31.7051 69.2109 31.7051 68.5239 31.7051C68.6957 31.8802 68.8674 32.5809 69.2109 33.1064C69.5544 33.6319 69.8978 34.3326 70.413 34.5077C71.2717 35.0332 72.1304 34.6829 72.4739 34.5077C72.8174 34.8581 73.3326 35.2084 73.5043 35.5587C73.5043 35.5587 73.5043 35.9091 73.5043 36.2594C73.5043 36.6097 73.5043 36.96 73.5043 36.96L73.5043 37.8359C73.5043 37.8359 73.5043 38.3614 73.5043 38.8869C73.5043 39.062 73.5043 39.4124 73.5043 39.5875C73.5043 39.7627 73.5043 39.9379 73.5043 39.9379C73.3326 39.7627 72.9891 39.5875 72.8174 39.4124C72.9891 39.062 73.1609 38.5365 72.9891 37.8359C72.8174 37.6607 72.8174 37.4855 72.6457 37.3104C71.9587 36.6097 69.5544 36.2594 69.0391 36.2594C69.0391 36.6097 69.3826 37.1352 69.5544 37.8359C69.7261 38.3614 70.0695 39.062 70.413 39.4124C71.1 40.113 72.1304 39.9379 72.4739 39.7627C72.8174 40.113 73.1609 40.6385 73.3326 40.9888C73.3326 40.9888 73.3326 40.9888 73.3326 41.164C73.3326 41.3392 73.3326 41.5143 73.3326 41.6895C73.3326 42.0399 73.3326 42.3902 73.3326 42.3902C73.3326 42.3902 73.3326 42.5653 73.3326 42.9156C73.3326 43.266 73.1609 43.6163 73.1609 44.1418C73.1609 44.4922 72.9891 45.0176 72.9891 45.368C72.9891 45.7183 72.8174 45.8935 72.8174 45.8935C72.6457 45.7183 72.4739 45.368 72.3022 45.1928C72.6457 44.8425 72.9891 43.9666 72.3022 43.0908C71.6152 42.215 69.5544 41.5143 68.8674 41.5143C68.8674 41.6895 69.0391 42.3902 69.2109 43.0908C69.3826 43.7915 69.5544 44.4922 69.8978 44.8425C70.5848 45.7183 71.4435 45.5432 71.9587 45.5432C72.1304 45.8935 72.4739 46.5941 72.6457 46.9445L72.3022 48.1706C72.3022 48.1706 72.3022 48.3458 72.1304 48.521C72.1304 48.6961 71.9587 48.8713 71.9587 48.8713C71.9587 48.8713 71.787 49.3968 71.6152 49.9223C71.6152 50.0974 71.4435 50.4478 71.4435 50.623C71.4435 50.7981 71.2717 50.9733 71.2717 50.9733C71.1 50.7981 70.9283 50.4478 70.7565 50.2726C71.1 50.0974 71.4435 49.572 71.2717 48.8713C71.2717 48.6961 71.1 48.521 71.1 48.3458C70.5848 47.47 68.5239 46.419 68.0087 46.2438C68.0087 46.419 68.0087 46.5941 68.0087 46.9445C68.0087 47.2948 68.0087 47.6451 68.0087 47.9955C68.0087 48.6961 68.1805 49.3968 68.3522 49.7471C68.8674 50.623 69.7261 50.7981 70.2413 50.623C70.4131 50.9733 70.7565 51.674 70.7565 52.1994L70.2413 53.4256C70.2413 53.4256 70.2413 53.4256 70.2413 53.6007C70.2413 53.6007 70.0696 53.7759 70.0696 53.9511C69.8978 54.3014 69.7261 54.6517 69.5544 55.0021C69.3826 55.3524 69.2109 55.7027 69.0391 56.0531C68.8674 56.4034 68.6956 56.5786 68.6956 56.5786C68.5239 56.2282 68.5239 56.0531 68.3522 55.7028C68.5239 55.5276 68.8674 55.3524 69.0391 55.0021C69.2109 54.6517 69.2109 54.3014 69.0391 53.7759C68.6956 52.9001 66.8065 51.4988 66.2913 51.1484C66.2913 51.3236 66.2913 51.4988 66.2913 51.8491C66.2913 52.1994 66.2913 52.3746 66.1196 52.7249C66.1196 53.4256 66.1196 54.1263 66.2913 54.6518C66.6348 55.7028 67.4935 55.8779 68.0087 55.8779C68.1805 56.4034 68.1804 56.9289 68.1804 57.4544C68.1804 57.4544 68.0087 57.8047 67.8369 57.9799C67.6652 58.1551 67.6652 58.3302 67.6652 58.3302C67.6652 58.5054 67.4935 58.5054 67.4935 58.5054L66.9783 59.2061L67.6652 59.7315C67.6652 59.7315 67.837 59.3812 68.0087 59.2061C68.1805 59.0309 68.1805 58.8557 68.3522 58.8557C68.3522 58.6805 68.5239 58.6805 68.5239 58.6805C68.5239 58.6805 68.8674 58.1551 69.2109 57.6296C69.3826 57.2792 69.5544 57.1041 69.7261 56.9289C69.8978 56.7537 69.8978 56.5786 69.8978 56.5786C70.0695 56.4034 70.4131 56.4034 70.5848 56.2282C70.9283 56.0531 71.1 56.0531 71.2717 55.8779C71.4435 56.2282 72.1304 57.1041 73.1609 56.5786C73.6761 56.4034 74.363 55.8779 74.8783 55.1772C75.2217 54.8269 75.3935 54.4766 75.5652 54.3014C75.7369 53.9511 75.9087 53.7759 76.0804 53.6007C75.7369 53.6007 75.05 53.4256 74.363 53.4256C73.6761 53.4256 72.8174 53.4256 72.3022 53.6007C71.787 53.7759 71.4435 54.1263 71.2717 54.4766C71.1 54.8269 71.1 55.1772 71.1 55.3524C70.9283 55.3524 70.5848 55.5276 70.2413 55.5276C70.2413 55.5276 70.4131 55.1772 70.5848 54.8269C70.7565 54.6518 70.7565 54.4766 70.9283 54.3014C70.9283 54.1263 71.1 54.1263 71.1 54.1263C71.1 54.1263 71.1 53.9511 71.2717 53.6007C71.4435 53.2504 71.6152 52.9001 71.787 52.5497C72.1304 51.8491 72.3022 51.1484 72.3022 51.1484C72.6457 50.7981 73.1609 50.4478 73.6761 50.2726C74.0196 50.623 74.5348 51.1484 75.5652 50.7981L75.7369 50.7981C76.2522 50.6229 76.7674 49.9223 77.2826 49.2216C77.7978 48.521 78.1413 47.8203 78.313 47.47C77.6261 47.47 75.3935 47.47 74.5348 47.9955C74.0196 48.3458 73.8478 48.6961 73.6761 49.0464C73.5044 49.3968 73.6761 49.7471 73.6761 49.9223C73.5044 49.9223 73.5043 50.0974 73.3326 50.0974C73.1609 50.0974 72.9891 50.2726 72.8174 50.2726L72.9891 49.9223C72.9891 49.9223 72.9891 49.9223 72.9891 49.7471C72.9891 49.572 73.1609 49.3968 73.1609 49.2216C73.3326 48.8713 73.3326 48.521 73.3326 48.521C73.3326 48.521 73.3326 48.3458 73.5043 48.1706C73.3326 47.47 73.3326 47.2948 73.5043 46.9445Z" fill="#F5EFDB" fill-opacity="1.000000" fill-rule="nonzero"/>
	<path id="1" d="M33.3962 53C33.3375 53 33.3082 52.9085 33.3082 52.7256C33.3082 52.5426 33.3375 52.4511 33.3962 52.4511C34.6876 52.4511 35.6562 52.3749 36.3019 52.2224C36.9769 52.0394 37.4612 51.7345 37.7547 51.3076C38.0482 50.8502 38.195 50.1793 38.195 49.295L38.195 32.2792C38.195 30.2056 37.7254 29.1688 36.7862 29.1688C36.0818 29.1688 34.9518 29.7482 33.3962 30.907L33.3082 30.9527C33.1908 30.9527 33.1027 30.8917 33.044 30.7697C32.9853 30.6172 32.9853 30.5105 33.044 30.4495L41.5409 24.0915C41.6583 24.0305 41.761 24 41.8491 24C41.9077 24 41.9665 24.0305 42.0251 24.0915C42.0839 24.1525 42.1132 24.2135 42.1132 24.2744L42.1132 49.295C42.1132 50.2098 42.2453 50.8806 42.5094 51.3076C42.7736 51.7345 43.2285 52.0394 43.8742 52.2224C44.5493 52.3749 45.5472 52.4511 46.8679 52.4511C46.956 52.4511 47 52.5426 47 52.7256C47 52.9085 46.956 53 46.8679 53C45.6939 53 44.7694 52.9847 44.0943 52.9543L40.1321 52.9085L36.3019 52.9543C35.5975 52.9847 34.6289 53 33.3962 53Z" fill="#AAAAAA" fill-opacity="1.000000" fill-rule="nonzero"/>
</svg>
